<svg width="321" height="37" viewBox="0 0 321 37" fill="none" xmlns="http://www.w3.org/2000/svg">
<g clip-path="url(#clip0_25_7029)">
<path d="M0 7.90742C0 3.37062 5.9131 0 14.559 0C17.6946 0 20.5132 0.424069 22.6047 1.18812C25.5799 2.27023 27.3099 3.96651 27.6715 5.89675H19.2642C19.0628 4.70863 17.1726 3.64845 14.436 3.64845C10.4542 3.64845 8.52292 5.42881 8.52292 7.91108C8.52292 10.3933 10.7748 12.1737 14.5143 12.1737C17.4522 12.1737 19.2194 11.1574 19.5028 9.79745H27.9884C27.7461 11.4718 26.2995 12.956 24.2489 13.9943C21.7957 15.2445 18.7385 15.7966 14.5553 15.7966C5.79379 15.7966 0 12.4442 0 7.90742Z" fill="black"/>
<path d="M28.0332 0.274414H36.4405V5.83118H45.2878V0.274414H53.6952V15.4349H45.2878V9.49791H36.4405V15.4349H28.0332V0.274414Z" fill="black"/>
<path d="M54.0157 7.90742C54.0157 3.37062 59.6455 0 68.5748 0C77.5041 0 83.2159 3.37062 83.2159 7.90742C83.2159 12.4442 77.5041 15.7966 68.5748 15.7966C59.6455 15.7966 54.0157 12.4479 54.0157 7.90742ZM74.6892 7.90742C74.6892 5.42516 72.6386 3.53878 68.6158 3.53878C64.593 3.53878 62.5424 5.42516 62.5424 7.90742C62.5424 10.3897 64.593 12.2541 68.6158 12.2541C72.6386 12.2541 74.6892 10.3897 74.6892 7.90742Z" fill="black"/>
<path d="M95.4037 10.5581H91.9438V15.4349H83.5365V0.274414H97.0516C100.713 0.274414 103.367 0.742352 105.258 1.6307C107.308 2.58486 108.475 3.91921 108.475 5.59721C108.475 7.50552 106.503 9.03363 103.487 9.88177L109.679 15.4385H100.388L95.4 10.5617L95.4037 10.5581ZM91.9438 7.16553H96.772C98.8226 7.16553 100.109 6.5733 100.109 5.5314C100.109 4.48951 98.8636 3.94115 96.69 3.94115H91.9438V7.16553Z" fill="black"/>
<path d="M109.523 0.274414H131.926V3.879H117.93V5.93719H129.633V9.2676H117.93V11.6438H132.329V15.4385H109.523V0.274414Z" fill="black"/>
<path d="M132.005 7.90742C132.005 3.37062 137.634 0 146.564 0C155.493 0 161.205 3.37062 161.205 7.90742C161.205 12.4442 155.493 15.7966 146.564 15.7966C137.634 15.7966 132.005 12.4479 132.005 7.90742ZM152.678 7.90742C152.678 5.42516 150.627 3.53878 146.605 3.53878C142.582 3.53878 140.531 5.42516 140.531 7.90742C140.531 10.3897 142.582 12.2541 146.605 12.2541C150.627 12.2541 152.678 10.3897 152.678 7.90742Z" fill="black"/>
<path d="M182.202 13.8261H182.12C180.312 15.2043 177.374 15.7966 173.873 15.7966C170.011 15.7966 166.715 15.0983 164.381 13.7822C161.727 12.298 160.399 10.2617 160.399 7.90742C160.399 3.43276 165.79 0 174.679 0C182.199 0 186.945 2.0582 187.869 5.42881H179.745C179.302 4.45272 177.572 3.64845 174.999 3.64845C170.977 3.64845 168.926 5.42881 168.926 7.91108C168.926 10.3933 171.26 12.2358 175.32 12.2358C178.377 12.2358 179.865 11.3658 180.387 10.3495H176.565V7.21282H188.429V15.4383H182.84L182.195 13.8261H182.202Z" fill="black"/>
<path d="M201.142 10.5581H197.682V15.4349H189.275V0.274414H202.79C206.451 0.274414 209.106 0.742352 210.996 1.6307C213.047 2.58486 214.214 3.91921 214.214 5.59721C214.214 7.50552 212.242 9.03363 209.225 9.88177L215.418 15.4385H206.127L201.139 10.5617L201.142 10.5581ZM197.686 7.16553H202.514C204.565 7.16553 205.855 6.5733 205.855 5.5314C205.855 4.48951 204.61 3.94115 202.436 3.94115H197.69V7.16553H197.686Z" fill="black"/>
<path d="M223.989 0.274414H232.557L243.216 15.4349H234.287L232.877 13.2085H223.143L221.734 15.4349H213.367L223.989 0.274414ZM225.037 10.1559H230.987L229.179 7.18747C228.735 6.44535 228.094 5.23529 228.094 5.23529H228.012C228.012 5.23529 227.408 6.44535 226.927 7.18747L225.037 10.1559Z" fill="black"/>
<path d="M242.773 0.274414H256.004C259.666 0.274414 262.32 0.782565 264.21 1.67457C266.261 2.62873 267.428 4.00695 267.428 5.68129C267.428 8.6059 263.327 10.814 257.533 10.814H251.18V15.4349H242.773V0.274414ZM251.18 7.37757H255.725C257.775 7.37757 259.065 6.65738 259.065 5.61914C259.065 4.58091 257.816 3.9448 255.646 3.9448H251.184V7.38122L251.18 7.37757Z" fill="black"/>
<path d="M267.547 0.274414H275.955V5.83118H284.802V0.274414H293.209V15.4349H284.802V9.49791H275.955V15.4349H267.547V0.274414Z" fill="black"/>
<path d="M302.701 10.1155L292.848 0.277832H301.978L305.035 3.64845C306.079 4.7927 306.967 6.08684 306.967 6.08684H307.045C307.045 6.08684 307.97 4.7927 309.017 3.64845L312.074 0.277832H321.004L311.109 10.1155V15.4383H302.701V10.1155Z" fill="black"/>
<path d="M47.562 21.4775H55.9693L58.0609 26.6724C58.7432 28.3248 59.4702 30.8911 59.4702 30.8911H59.5523C59.5523 30.8911 60.3166 28.6209 61.0399 26.8844L63.2507 21.4775H70.8528L73.0637 26.8405C73.7869 28.599 74.5102 30.8911 74.5102 30.8911H74.5923C74.5923 30.8911 75.3566 28.3248 76.0388 26.6285L78.1304 21.4775H86.7391L79.1781 36.638H70.6924L68.1199 30.2148C67.598 28.8987 67.1133 27.2683 67.1133 27.2683H67.035C67.035 27.2683 66.554 28.9024 66.0283 30.2148L63.5341 36.638H54.9254L47.5657 21.4775H47.562Z" fill="black"/>
<path d="M85.1285 29.111C85.1285 24.5742 90.7583 21.2036 99.6876 21.2036C108.617 21.2036 114.329 24.5742 114.329 29.111C114.329 33.6478 108.617 37.0002 99.6876 37.0002C90.7583 37.0002 85.1285 33.6515 85.1285 29.111ZM105.802 29.111C105.802 26.6288 103.751 24.7424 99.7286 24.7424C95.7058 24.7424 93.6552 26.6288 93.6552 29.111C93.6552 31.5933 95.7058 33.4577 99.7286 33.4577C103.751 33.4577 105.802 31.5933 105.802 29.111Z" fill="black"/>
<path d="M126.513 31.7612H123.053V36.638H114.646V21.4775H128.161C131.822 21.4775 134.476 21.9455 136.367 22.8338C138.417 23.788 139.584 25.1223 139.584 26.8003C139.584 28.7086 137.612 30.2368 134.596 31.0849L140.788 36.6417H131.497L126.509 31.7649L126.513 31.7612ZM123.057 28.3687H127.885C129.935 28.3687 131.225 27.7764 131.225 26.7345C131.225 25.6926 129.98 25.1443 127.806 25.1443H123.06V28.3687H123.057Z" fill="black"/>
<path d="M140.632 21.4775H149.039V26.4384L157.726 21.4775H167.379L156.641 27.5827L167.983 36.6343H158.211L150.892 30.6352L149.043 31.7393V36.638H140.636V21.4775H140.632Z" fill="black"/>
<path d="M166.052 31.8053H174.66C174.944 33.0154 176.711 33.5857 179.488 33.5857C181.136 33.5857 183.15 33.2457 183.15 32.3354C183.15 31.4251 181.218 31.1912 177.68 30.7232C172.852 30.0871 167.021 29.2171 167.021 25.9963C167.021 22.5197 172.412 21.2036 178.884 21.2036C184.838 21.2036 190.308 22.5197 190.427 25.8245H182.102C181.86 24.9983 180.734 24.4682 178.441 24.4682C176.591 24.4682 175.305 24.9142 175.305 25.5284C175.305 26.4204 177.758 26.5447 182.061 27.0967C186.889 27.7109 191.713 28.7089 191.713 31.9296C191.713 35.1504 186.121 36.9965 179.324 36.9965C171.842 36.9965 166.171 35.3002 166.052 31.8017V31.8053Z" fill="black"/>
<path d="M191.993 21.4775H200.4V27.0343H209.248V21.4775H217.655V36.638H209.248V30.701H200.4V36.638H191.993V21.4775Z" fill="black"/>
<path d="M217.976 29.111C217.976 24.5742 223.605 21.2036 232.535 21.2036C241.464 21.2036 247.176 24.5742 247.176 29.111C247.176 33.6478 241.464 37.0002 232.535 37.0002C223.605 37.0002 217.976 33.6515 217.976 29.111ZM238.649 29.111C238.649 26.6288 236.598 24.7424 232.576 24.7424C228.553 24.7424 226.502 26.6288 226.502 29.111C226.502 31.5933 228.553 33.4577 232.576 33.4577C236.598 33.4577 238.649 31.5933 238.649 29.111Z" fill="black"/>
<path d="M247.5 21.4775H260.732C264.393 21.4775 267.048 21.9857 268.938 22.8777C270.988 23.8319 272.155 25.2101 272.155 26.8844C272.155 29.809 268.054 32.0171 262.26 32.0171H255.907V36.638H247.5V21.4775ZM255.904 28.5807H260.449C262.499 28.5807 263.785 27.8605 263.785 26.8223C263.785 25.784 262.54 25.1479 260.366 25.1479H255.904V28.5843V28.5807Z" fill="black"/>
</g>
<defs>
<clipPath id="clip0_25_7029">
<rect width="321" height="37" fill="white"/>
</clipPath>
</defs>
</svg>
