<svg width="300" height="47" viewBox="0 0 300 47" fill="none" xmlns="http://www.w3.org/2000/svg">
<path d="M27.0996 0.375977H38.3258V7.93679H50.1419V0.375977H61.3681V21.0115H50.1419V12.9288H38.3258V21.0115H27.0996V0.375977Z" fill="#FF3B49"/>
<path d="M61.8528 10.7668C61.8528 4.58868 69.3742 0 81.2987 0C93.2232 0 100.85 4.58868 100.85 10.7668C100.85 16.9449 93.2232 21.5031 81.2987 21.5031C69.3742 21.5031 61.8528 16.9415 61.8528 10.7668ZM89.4642 10.7668C89.4642 7.39137 86.7254 4.81913 81.3529 4.81913C75.9805 4.81913 73.2417 7.38798 73.2417 10.7668C73.2417 14.1456 75.9805 16.6839 81.3529 16.6839C86.7254 16.6839 89.4642 14.1456 89.4642 10.7668Z" fill="#FF3B49"/>
<path d="M101.067 13.1321V0.375977H112.293V13.4812C112.293 15.3858 114.225 16.5685 118.364 16.5685C122.177 16.5685 124.112 15.24 124.112 13.3659V0.375977H135.339V13.1321C135.339 18.2122 129.698 21.3876 118.204 21.3876C106.71 21.3876 101.07 18.3003 101.07 13.1321H101.067Z" fill="#FF3B49"/>
<path d="M135.067 14.4303H146.561C146.938 16.0739 149.3 16.8534 153.008 16.8534C155.212 16.8534 157.896 16.3925 157.896 15.1521C157.896 13.9118 155.317 13.5932 150.592 12.9595C144.145 12.0953 136.355 10.9091 136.355 6.52379C136.355 1.78938 143.555 0 152.202 0C160.15 0 167.458 1.78938 167.617 6.29334H156.5C156.178 5.16819 154.673 4.44634 151.612 4.44634C149.141 4.44634 147.422 5.05297 147.422 5.89005C147.422 7.1033 150.7 7.27614 156.445 8.0251C162.892 8.86218 169.336 10.2178 169.336 14.6065C169.336 18.9952 161.869 21.5031 152.791 21.5031C142.799 21.5031 135.227 19.1952 135.064 14.4303H135.067Z" fill="#FF3B49"/>
<path d="M169.766 0.375977H199.686V5.28322H180.993V8.08252H196.625V12.6136H180.993V15.8467H200.222V21.0149H169.763V0.379364L169.766 0.375977Z" fill="#FF3B49"/>
<path d="M205.218 10.7668C205.218 4.58868 212.739 0 224.664 0C236.588 0 244.215 4.58868 244.215 10.7668C244.215 16.9449 236.588 21.5031 224.664 21.5031C212.739 21.5031 205.218 16.9415 205.218 10.7668ZM232.829 10.7668C232.829 7.39137 230.09 4.81913 224.718 4.81913C219.345 4.81913 216.607 7.38798 216.607 10.7668C216.607 14.1456 219.345 16.6839 224.718 16.6839C230.09 16.6839 232.829 14.1456 232.829 10.7668Z" fill="#FF3B49"/>
<path d="M244.699 0.375977H274.297V5.45606H255.926V8.83148H271.128V13.5083H255.926V21.0115H244.699V0.375977Z" fill="#FF3B49"/>
<path d="M29.113 43.5143H29.0046C26.5878 45.3918 22.6661 46.1984 17.9919 46.1984C12.8364 46.1984 8.42994 45.2461 5.31493 43.4567C1.76945 41.4369 -0.0032959 38.6647 -0.0032959 35.4621C-0.0032959 29.3721 7.19613 24.6953 19.0664 24.6953C29.113 24.6953 35.4481 27.4946 36.6853 32.0833H25.8353C25.2456 30.7548 22.9339 29.6602 19.4969 29.6602C14.1244 29.6602 11.3856 32.0833 11.3856 35.4621C11.3856 38.8409 14.5006 41.3488 19.9273 41.3488C24.0084 41.3488 25.998 40.166 26.6963 38.7799H21.595V34.5064H37.4412V45.707H29.974L29.113 43.5143Z" fill="#FF3B49"/>
<path d="M54.4669 39.0683H49.847V45.7073H38.6207V25.0718H56.6701C61.5579 25.0718 65.1034 25.7055 67.6286 26.9188C70.3674 28.2167 71.9266 30.0366 71.9266 32.3174C71.9266 34.9168 69.2929 36.9942 65.2661 38.1465L73.54 45.7073H61.1308L54.4703 39.0683H54.4669ZM49.847 34.4525H56.2939C59.0327 34.4525 60.7512 33.6459 60.7512 32.2293C60.7512 30.8127 59.0869 30.0637 56.1854 30.0637H49.847V34.4525Z" fill="#FF3B49"/>
<path d="M73.3739 25.0718H103.294V29.979H84.6001V32.7783H100.233V37.3094H84.6001V40.5425H103.829V45.7107H73.3705V25.0752L73.3739 25.0718Z" fill="#FF3B49"/>
<path d="M116.615 25.0718H128.054L142.29 45.7073H130.366L128.485 42.6775H115.486L113.605 45.7073H102.433L116.615 25.0718ZM118.014 38.5193H125.963L123.546 34.4796C122.956 33.4697 122.095 31.8226 122.095 31.8226H121.987C121.987 31.8226 121.18 33.4663 120.536 34.4796L118.011 38.5193H118.014Z" fill="#FF3B49"/>
<path d="M133.108 25.0718H166.197V30.2095H155.184V45.7073H143.958V30.2095H133.108V25.0718Z" fill="#FF3B49"/>
<path d="M166.678 25.0718H177.905L190.473 36.6756H190.582V25.0718H201.432V45.7073H189.829L177.637 34.0187H177.528V45.7073H166.678V25.0718Z" fill="#FF3B49"/>
<path d="M203.418 25.0718H233.337V29.979H214.644V32.7783H230.277V37.3094H214.644V40.5425H233.873V45.7107H203.414V25.0752L203.418 25.0718Z" fill="#FF3B49"/>
<path d="M233.016 39.1256H244.51C244.886 40.7692 247.248 41.5487 250.957 41.5487C253.16 41.5487 255.844 41.0878 255.844 39.8474C255.844 38.6071 253.265 38.2885 248.54 37.6548C242.093 36.7906 234.304 35.6044 234.304 31.2191C234.304 26.4847 241.503 24.6953 250.15 24.6953C258.098 24.6953 265.406 26.4847 265.566 30.9887H254.448C254.126 29.8635 252.621 29.1417 249.56 29.1417C247.089 29.1417 245.371 29.7483 245.371 30.5854C245.371 31.7986 248.648 31.9715 254.394 32.7204C260.841 33.5575 267.284 34.9131 267.284 39.3018C267.284 43.6905 259.817 46.1984 250.74 46.1984C240.747 46.1984 233.175 43.8905 233.012 39.1256H233.016Z" fill="#FF3B49"/>
<path d="M265.728 39.1256H277.222C277.598 40.7692 279.961 41.5487 283.669 41.5487C285.872 41.5487 288.557 41.0878 288.557 39.8474C288.557 38.6071 285.977 38.2885 281.252 37.6548C274.805 36.7906 267.016 35.6044 267.016 31.2191C267.016 26.4847 274.216 24.6953 282.862 24.6953C290.811 24.6953 298.119 26.4847 298.278 30.9887H287.16C286.838 29.8635 285.333 29.1417 282.273 29.1417C279.802 29.1417 278.083 29.7483 278.083 30.5854C278.083 31.7986 281.361 31.9715 287.106 32.7204C293.553 33.5575 299.997 34.9131 299.997 39.3018C299.997 43.6905 292.53 46.1984 283.452 46.1984C273.46 46.1984 265.888 43.8905 265.725 39.1256H265.728Z" fill="#FF3B49"/>
</svg>
