<svg width="320" height="56" viewBox="0 0 320 56" fill="none" xmlns="http://www.w3.org/2000/svg">
<path d="M59.1292 9.87138C61.4989 8.7217 64.9978 7.5163 67.6521 6.55433C68.9953 6.06454 69.7725 5.53663 69.7725 4.83861C69.7725 4.02914 68.7812 3.50123 66.8719 3.50123C65.7046 3.50123 64.8922 3.67134 64.3262 4.06728C63.6898 4.50134 63.4082 4.99112 63.4082 5.83871H56.7595C56.7595 4.31363 57.041 3.65374 57.9619 2.78561C59.3052 1.50396 62.3817 0.544922 67.0127 0.544922C73.4474 0.544922 76.7351 2.33396 76.7351 4.68904C76.7351 5.83872 76.1339 6.76256 74.7554 7.47817C72.3505 8.7217 69.2739 9.47544 66.693 10.5694V10.6075H76.5943V13.7163H56.3694C56.3694 11.8716 57.0762 10.8715 59.1263 9.87431L59.1292 9.87138Z" fill="black"/>
<path d="M76.9932 4.10547H83.8883V7.70408H76.9932V4.10547ZM76.9932 10.1149H83.8883V13.7135H76.9932V10.1149Z" fill="black"/>
<path d="M86.4778 9.87138C88.8476 8.7217 92.3465 7.5163 94.9978 6.55433C96.341 6.06454 97.1182 5.53663 97.1182 4.83861C97.1182 4.02914 96.1269 3.50123 94.2176 3.50123C93.0503 3.50123 92.2379 3.67134 91.6719 4.06728C91.0355 4.50134 90.7539 4.99112 90.7539 5.83871H84.1052C84.1052 4.31363 84.3867 3.65374 85.3076 2.78561C86.6509 1.50396 89.7274 0.544922 94.3584 0.544922C100.793 0.544922 104.081 2.33396 104.081 4.68904C104.081 5.83872 103.48 6.76256 102.101 7.47817C99.6962 8.7217 96.6196 9.47544 94.0387 10.5694V10.6075H103.94V13.7163H83.7151C83.7151 11.8716 84.4219 10.8715 86.472 9.87431L86.4778 9.87138Z" fill="black"/>
<path d="M106.386 0.243164H113.777L115.616 4.85947C116.217 6.32882 116.853 8.60765 116.853 8.60765H116.924C116.924 8.60765 117.595 6.59278 118.232 5.04717L120.176 0.243164H126.86L128.805 5.00904C129.441 6.57225 130.078 8.60765 130.078 8.60765H130.148C130.148 8.60765 130.82 6.32882 131.421 4.82134L133.26 0.243164H140.827L134.178 13.7137H126.717L124.452 8.00642C123.992 6.83914 123.57 5.38738 123.57 5.38738H123.499C123.499 5.38738 123.074 6.83914 122.616 8.00642L120.426 13.7137H112.859L106.389 0.243164H106.386Z" fill="black"/>
<path d="M138.134 7.02711C138.134 2.99445 143.085 0 150.933 0C158.781 0 163.802 2.99445 163.802 7.02711C163.802 11.0598 158.781 14.0366 150.933 14.0366C143.085 14.0366 138.134 11.0598 138.134 7.02711ZM156.309 7.02711C156.309 4.82161 154.505 3.14695 150.971 3.14695C147.437 3.14695 145.633 4.82454 145.633 7.02711C145.633 9.22968 147.437 10.8897 150.971 10.8897C154.505 10.8897 156.309 9.23261 156.309 7.02711Z" fill="black"/>
<path d="M163.817 0.243164H173.434L177.323 7.78058H177.393L181.282 0.243164H190.969V13.7137H184.285V5.273H184.215L180.006 13.7137H174.595L170.387 5.273H170.316V13.7137H163.811V0.243164H163.817Z" fill="black"/>
<path d="M192.137 0.243164H211.831V3.44583H199.525V5.273H209.813V8.23224H199.525V10.3439H212.183V13.7167H192.134V0.2461L192.137 0.243164Z" fill="black"/>
<path d="M212.693 0.243164H220.084L228.357 7.81578H228.428V0.243164H235.569V13.7137H227.932L219.905 6.08247H219.835V13.7137H212.693V0.243164Z" fill="black"/>
<path d="M236.417 5.0853C238.042 4.84187 239.033 4.16145 239.033 3.40771H236.558V0.243164H242.286V2.95605C242.286 4.0676 241.755 4.80081 240.802 5.36685C239.775 5.96809 238.045 6.34642 236.417 6.40215V5.08237V5.0853Z" fill="black"/>
<path d="M241.549 9.42032H249.116C249.363 10.4937 250.92 11.0041 253.36 11.0041C254.809 11.0041 256.577 10.702 256.577 9.8925C256.577 9.08304 254.879 8.8748 251.767 8.46127C247.524 7.89523 242.397 7.1239 242.397 4.2585C242.397 1.16728 247.134 0 252.826 0C258.058 0 262.868 1.16727 262.974 4.10599H255.654C255.442 3.36984 254.451 2.90059 252.436 2.90059C250.808 2.90059 249.679 3.29652 249.679 3.84203C249.679 4.6339 251.835 4.74535 255.618 5.23514C259.862 5.78065 264.103 6.66637 264.103 9.53176C264.103 12.3972 259.188 14.0337 253.213 14.0337C246.638 14.0337 241.652 12.5262 241.547 9.41738L241.549 9.42032Z" fill="black"/>
<path d="M0 25.7976C0 21.765 4.95065 18.7705 12.799 18.7705C20.6473 18.7705 25.6683 21.765 25.6683 25.7976C25.6683 29.8303 20.6473 32.8071 12.799 32.8071C4.95065 32.8071 0 29.8303 0 25.7976ZM18.1749 25.7976C18.1749 23.5921 16.3712 21.9175 12.8371 21.9175C9.303 21.9175 7.49929 23.5951 7.49929 25.7976C7.49929 28.0002 9.303 29.6602 12.8371 29.6602C16.3712 29.6602 18.1749 28.0031 18.1749 25.7976Z" fill="black"/>
<path d="M25.6829 19.0137H37.3145C40.5319 19.0137 42.8664 19.4653 44.5264 20.2572C46.3301 21.1048 47.3566 22.3307 47.3566 23.8177C47.3566 26.4191 43.7492 28.3783 38.6578 28.3783H33.0707V32.4842H25.6799V19.0137H25.6829ZM33.0736 25.3252H37.0682C38.8719 25.3252 40.004 24.6858 40.004 23.762C40.004 22.8381 38.9071 22.2721 36.9978 22.2721H33.0736V25.3252Z" fill="black"/>
<path d="M46.6616 19.0137H66.3557V22.2163H54.0495V24.0435H64.3379V27.0027H54.0495V29.1144H66.7076V32.4872H46.6587V19.0166L46.6616 19.0137Z" fill="black"/>
<path d="M67.2208 19.0137H74.6116L82.8852 26.5863H82.9556V19.0137H90.0971V32.4842H82.4599L74.4327 24.853H74.3623V32.4842H67.2208V19.0137Z" fill="black"/>
<path d="M93.5607 28.1908H101.127C101.374 29.2642 102.931 29.7746 105.371 29.7746C106.82 29.7746 108.589 29.4725 108.589 28.663C108.589 27.8536 106.89 27.6453 103.779 27.2318C99.5349 26.6657 94.4083 25.8944 94.4083 23.029C94.4083 19.9378 99.1477 18.7705 104.84 18.7705C110.073 18.7705 114.882 19.9378 114.988 22.8765H107.668C107.457 22.1404 106.465 21.6711 104.45 21.6711C102.823 21.6711 101.693 22.067 101.693 22.6126C101.693 23.4044 103.849 23.5159 107.632 24.0057C111.876 24.5512 116.117 25.4369 116.117 28.3023C116.117 31.1677 111.202 32.8042 105.228 32.8042C98.6521 32.8042 93.6663 31.2967 93.5607 28.1879V28.1908Z" fill="black"/>
<path d="M114.299 19.0137H136.078V22.3659H128.831V32.4842H121.44V22.3659H114.299V19.0137Z" fill="black"/>
<path d="M143.328 27.7565L134.665 19.0137H142.692L145.378 22.0081C146.296 23.0258 147.076 24.1755 147.076 24.1755H147.147C147.147 24.1755 147.959 23.0258 148.88 22.0081L151.567 19.0137H159.415L150.716 27.7565V32.4842H143.325V27.7565H143.328Z" fill="black"/>
<path d="M158.427 19.0137H165.817V29.1115H176.637V32.4842H158.427V19.0137Z" fill="black"/>
<path d="M175.851 19.0137H195.545V22.2163H183.239V24.0435H193.527V27.0027H183.239V29.1144H195.897V32.4872H175.848V19.0166L175.851 19.0137Z" fill="black"/>
<path d="M200.105 19.0137H213.189C215.664 19.0137 217.503 19.3333 218.846 19.8818C220.365 20.5036 221.251 21.4274 221.251 22.539C221.251 23.8206 220.225 24.6301 218.104 25.1199V25.1756C220.861 25.6478 222.454 26.8913 222.454 28.4164C222.454 29.9415 221.357 30.9592 219.553 31.6366C218.034 32.2027 216.051 32.4842 213.435 32.4842H200.105V19.0137ZM211.951 24.2517C213.365 24.2517 214.321 23.8939 214.321 23.1783C214.321 22.4627 213.33 22.0668 211.916 22.0668H207.355V24.2517H211.951ZM212.623 29.396C214.212 29.396 215.309 28.8886 215.309 28.0762C215.309 27.2081 214.107 26.7769 212.588 26.7769H207.355V29.396H212.623Z" fill="black"/>
<path d="M229.17 19.0137H236.701L246.072 32.4842H238.223L236.986 30.5075H228.428L227.19 32.4842H219.834L229.17 19.0137ZM230.091 27.7946H235.323L233.73 25.158C233.34 24.4981 232.777 23.4247 232.777 23.4247H232.707C232.707 23.4247 232.176 24.4981 231.754 25.158L230.091 27.7946Z" fill="black"/>
<path d="M240.796 19.0137H262.575V22.3659H255.328V32.4842H247.937V22.3659H240.796V19.0137Z" fill="black"/>
<path d="M261.414 19.0137H283.193V22.3659H275.946V32.4842H268.555V22.3659H261.414V19.0137Z" fill="black"/>
<path d="M282.477 19.0137H289.868V29.1115H300.687V32.4842H282.477V19.0137Z" fill="black"/>
<path d="M299.901 19.0137H319.595V22.2163H307.289V24.0435H317.578V27.0027H307.289V29.1144H319.947V32.4872H299.898V19.0166L299.901 19.0137Z" fill="black"/>
<path d="M115.726 43.8876C115.285 44.8304 114.581 45.6498 113.614 46.3455C112.647 47.0412 111.398 47.5409 109.87 47.8444L108 45.3919C109.254 45.1394 110.27 44.7713 111.046 44.2905C111.823 43.8097 112.379 43.2724 112.709 42.6814C113.042 42.0905 113.209 41.4646 113.209 40.8064V40.2181H116.386V40.8064C116.386 41.9159 116.166 42.942 115.726 43.8876ZM121.482 41.204H108.935V38.7031H121.482V41.204ZM126.753 55.331H111.363V48.5133H126.753V55.331ZM117.222 39.8206H113.209V37H117.222V39.8206ZM117.695 42.5203C118.028 43.0709 118.581 43.5733 119.357 44.0246C120.134 44.4759 121.141 44.8278 122.38 45.0803L120.561 47.5436C119.032 47.2508 117.775 46.7699 116.792 46.1037C115.806 45.4348 115.089 44.6505 114.635 43.7452C114.181 42.8426 113.955 41.8621 113.955 40.8037V40.2155H117.195V40.8037C117.195 41.3947 117.362 41.9669 117.695 42.5176V42.5203ZM115.328 52.7791H122.817V51.0357H115.328V52.7791ZM126.753 47.7934H122.739V37.0564H126.753V47.7934ZM129.632 43.7667H125.619V41.1744H129.632V43.7667Z" fill="black"/>
<path d="M138.543 39.0982C139.464 39.6408 140.187 40.4145 140.71 41.4218C141.234 42.4292 141.495 43.6004 141.495 44.9354C141.495 46.2705 141.234 47.4632 140.71 48.4706C140.187 49.4779 139.464 50.2542 138.543 50.8022C137.621 51.3502 136.568 51.6242 135.389 51.6242C134.21 51.6242 133.17 51.3529 132.243 50.813C131.317 50.2703 130.591 49.494 130.062 48.4813C129.536 47.4686 129.27 46.2866 129.27 44.9381C129.27 43.5896 129.533 42.4318 130.062 41.4245C130.591 40.4172 131.317 39.6435 132.243 39.1009C133.17 38.5583 134.218 38.2896 135.389 38.2896C136.56 38.2896 137.619 38.5609 138.543 39.1009V39.0982ZM134.183 41.583C133.834 41.8624 133.57 42.2814 133.39 42.8428C133.21 43.4043 133.122 44.1 133.122 44.9301C133.122 45.7601 133.21 46.4773 133.39 47.0388C133.568 47.6002 133.834 48.0166 134.183 48.2906C134.532 48.5619 134.935 48.6989 135.392 48.6989C135.872 48.6989 136.286 48.5619 136.633 48.2906C136.977 48.0193 137.24 47.6002 137.425 47.0388C137.608 46.4773 137.699 45.7735 137.699 44.9301C137.699 44.0866 137.602 43.3828 137.412 42.8214C137.221 42.2599 136.958 41.8436 136.619 41.5696C136.283 41.2982 135.872 41.1666 135.392 41.18C134.935 41.1666 134.532 41.3009 134.183 41.5776V41.583ZM145.234 43.1894H139.252V40.6482H145.234V43.1894ZM145.234 48.8117H139.252V46.2705H145.234V48.8117ZM148.611 55.5596H144.635V37.0566H148.611V55.5596Z" fill="black"/>
<path d="M156.237 46.0253C155.797 47.4034 155.095 48.6283 154.131 49.6948C153.167 50.7612 151.95 51.5617 150.48 52.0909L148.176 49.5792C149.505 49.0877 150.577 48.4215 151.396 47.5807C152.216 46.7399 152.809 45.8158 153.177 44.8084C153.548 43.8011 153.731 42.7561 153.731 41.6736V40.1182H156.895V41.6736C156.895 43.1967 156.675 44.6473 156.234 46.0253H156.237ZM162.069 41.3727H149.159V38.7805H162.069V41.3727ZM158.306 44.5747C158.663 45.5257 159.246 46.4014 160.057 47.2019C160.866 48.0024 161.91 48.6417 163.192 49.1199L161 51.6127C159.539 51.1023 158.332 50.3314 157.387 49.2999C156.439 48.271 155.743 47.0998 155.294 45.7916C154.846 44.4834 154.623 43.1107 154.623 41.6736V40.1182H157.776V41.6736C157.776 42.6568 157.954 43.6238 158.311 44.5747H158.306ZM167.202 55.4997H163.189V37.0586H167.202V55.4997ZM170.332 46.4981H166.332V43.8468H170.332V46.4981Z" fill="black"/>
<path d="M181.843 38.7973C182.826 39.2056 183.605 39.7751 184.172 40.5031C184.738 41.2311 185.026 42.0504 185.026 42.961C185.026 43.8717 184.741 44.6802 184.172 45.4082C183.602 46.1362 182.826 46.7084 181.843 47.122C180.857 47.5384 179.771 47.7452 178.584 47.7452C177.397 47.7452 176.317 47.5384 175.32 47.122C174.324 46.7057 173.537 46.1308 172.959 45.3975C172.382 44.6641 172.094 43.8502 172.094 42.961C172.094 42.0719 172.382 41.2311 172.959 40.5031C173.537 39.7751 174.318 39.2083 175.307 38.7973C176.295 38.389 177.389 38.1849 178.584 38.1849C179.779 38.1849 180.859 38.389 181.843 38.7973ZM179.283 53.886H175.269V48.9917H179.283V53.886ZM191.231 55.2507H175.269V52.6987H191.231V55.2507ZM177.295 41.18C176.9 41.3305 176.586 41.5561 176.355 41.857C176.121 42.1605 176.005 42.5258 176.005 42.9583C176.005 43.3908 176.121 43.7454 176.355 44.0409C176.588 44.3364 176.9 44.562 177.295 44.7178C177.69 44.8736 178.119 44.9515 178.584 44.9515C179.073 44.9515 179.514 44.8763 179.898 44.7286C180.285 44.5781 180.585 44.3525 180.8 44.0516C181.015 43.7508 181.125 43.3855 181.125 42.961C181.125 42.5366 181.018 42.1632 180.8 41.8597C180.585 41.5588 180.282 41.3305 179.898 41.1827C179.511 41.0323 179.073 40.9624 178.584 40.9678C178.119 40.9624 177.69 41.0323 177.295 41.1827V41.18ZM190.559 50.4073H186.546V37.0996H190.559V50.4073ZM193.436 44.7931H189.45V42.182H193.436V44.7931Z" fill="black"/>
<path d="M197.2 49.6491H193.2V38.9927H197.2V49.6491ZM198.618 48.3328C199.857 48.2603 201.111 48.1313 202.382 47.9433L202.768 50.6752C201.363 50.8606 200.007 50.9949 198.693 51.0728C197.38 51.1534 196.093 51.1937 194.831 51.1937H193.197V48.443H194.831C196.117 48.443 197.38 48.4053 198.618 48.3328ZM207.179 54.6509H203.429V37.3245H207.179V54.6509ZM209.583 46.4981H206.07V43.9569H209.583V46.4981ZM212.412 55.4997H208.587V37.0586H212.412V55.4997Z" fill="black"/>
</svg>
