<svg width="208" height="59" viewBox="0 0 208 59" fill="none" xmlns="http://www.w3.org/2000/svg">
<path d="M18.7725 0.258789H26.615V5.49651H34.8684V0.258789H42.711V14.5528H34.8684V8.9541H26.615V14.5528H18.7725V0.258789Z" fill="black"/>
<path d="M42.7079 7.45668C42.7079 3.17749 47.9612 0 56.2892 0C64.6173 0 69.9453 3.17749 69.9453 7.45668C69.9453 11.7359 64.6173 14.8947 56.2892 14.8947C47.9612 14.8947 42.7079 11.7359 42.7079 7.45668ZM61.9907 7.45668C61.9907 5.11635 60.0767 3.33932 56.3266 3.33932C52.5765 3.33932 50.6625 5.11946 50.6625 7.45668C50.6625 9.79389 52.5765 11.5554 56.3266 11.5554C60.0767 11.5554 61.9907 9.797 61.9907 7.45668Z" fill="black"/>
<path d="M69.715 9.09725V0.258789H77.5575V9.33689C77.5575 10.6564 78.9082 11.4749 81.7963 11.4749C84.4603 11.4749 85.8109 10.5537 85.8109 9.25597V0.258789H93.6535V9.09414C93.6535 12.614 89.7135 14.8111 81.6842 14.8111C73.6549 14.8111 69.715 12.6731 69.715 9.09414V9.09725Z" fill="black"/>
<path d="M93.0654 9.99618H101.095C101.356 11.1352 103.009 11.6767 105.598 11.6767C107.135 11.6767 109.012 11.3562 109.012 10.4972C109.012 9.63828 107.21 9.41732 103.908 8.97851C99.4048 8.37787 93.9648 7.55938 93.9648 4.51882C93.9648 1.23863 98.994 0 105.035 0C110.587 0 115.691 1.23863 115.803 4.35699H108.035C107.811 3.57584 106.759 3.0779 104.621 3.0779C102.893 3.0779 101.695 3.49804 101.695 4.0769C101.695 4.91717 103.983 5.03544 107.997 5.55516C112.501 6.13402 117.001 7.07388 117.001 10.1144C117.001 13.155 111.785 14.8916 105.445 14.8916C98.468 14.8916 93.1774 13.2919 93.0623 9.99307L93.0654 9.99618Z" fill="black"/>
<path d="M116.982 0.258789H137.88V3.65724H124.822V5.5961H135.739V8.73625H124.822V10.977H138.254V14.5559H116.979V0.258789H116.982Z" fill="black"/>
<path d="M141.667 7.45668C141.667 3.17749 146.921 0 155.249 0C163.577 0 168.905 3.17749 168.905 7.45668C168.905 11.7359 163.577 14.8947 155.249 14.8947C146.921 14.8947 141.667 11.7359 141.667 7.45668ZM160.953 7.45668C160.953 5.11635 159.039 3.33932 155.286 3.33932C151.533 3.33932 149.622 5.11946 149.622 7.45668C149.622 9.79389 151.536 11.5554 155.286 11.5554C159.036 11.5554 160.953 9.797 160.953 7.45668Z" fill="black"/>
<path d="M168.924 0.258789H189.598V3.77861H176.766V6.11894H187.385V9.35867H176.766V14.5559H168.924V0.258789Z" fill="black"/>
<path d="M20.3347 32.9516H20.26C18.5701 34.2525 15.8314 34.8095 12.5699 34.8095C8.96918 34.8095 5.89127 34.1498 3.71589 32.9111C1.23863 31.5107 0 29.5936 0 27.3746C0 23.1577 5.0261 19.918 13.3199 19.918C20.3347 19.918 24.7633 21.8568 25.6253 25.0374H18.0473C17.6334 24.1162 16.0213 23.3569 13.6187 23.3569C9.86547 23.3569 7.95462 25.0374 7.95462 27.3746C7.95462 29.7119 10.13 31.4547 13.9206 31.4547C16.7713 31.4547 18.1593 30.6362 18.6479 29.6745H15.0845V26.7149H26.1513V34.4703H20.9353L20.3347 32.9516Z" fill="black"/>
<path d="M38.0303 29.8732H34.803V34.4698H26.9604V20.1758H39.5677C42.9817 20.1758 45.459 20.6146 47.2205 21.4549C49.1344 22.3543 50.2237 23.6147 50.2237 25.1925C50.2237 26.9914 48.3844 28.4323 45.571 29.2321L51.3503 34.4698H42.683L38.0303 29.8732ZM34.803 26.6739H39.3063C41.2203 26.6739 42.4215 26.1137 42.4215 25.1334C42.4215 24.1531 41.2576 23.6334 39.2316 23.6334H34.803V26.6708V26.6739Z" fill="black"/>
<path d="M50.7029 20.1758H71.6009V23.5742H58.5424V25.5131H69.4598V28.6532H58.5424V30.894H71.9744V34.4729H50.6998V20.1789L50.7029 20.1758Z" fill="black"/>
<path d="M80.5483 20.1758H88.5402L98.4835 34.4698H90.1554L88.8421 32.3722H79.7609L78.4476 34.4698H70.6423L80.5483 20.1758ZM81.5255 29.4935H87.0775L85.3907 26.6957C84.9768 25.9955 84.3762 24.8564 84.3762 24.8564H84.3015C84.3015 24.8564 83.7382 25.9955 83.29 26.6957L81.5255 29.4935Z" fill="black"/>
<path d="M92.8848 20.1758H115.995V23.733H108.305V34.4698H100.463V23.733H92.8848V20.1758Z" fill="black"/>
<path d="M115.236 20.1758H123.079L131.858 28.2113H131.933V20.1758H139.511V34.4698H131.407L122.889 26.372H122.814V34.4698H115.236V20.1758Z" fill="black"/>
<path d="M140.728 20.1758H161.626V23.5742H148.567V25.5131H159.485V28.6532H148.567V30.894H161.999V34.4729H140.725V20.1789L140.728 20.1758Z" fill="black"/>
<path d="M160.922 29.9142H168.952C169.213 31.0532 170.866 31.5947 173.455 31.5947C174.992 31.5947 176.869 31.2742 176.869 30.4152C176.869 29.5563 175.067 29.3353 171.765 28.8965C167.262 28.2958 161.822 27.4773 161.822 24.4368C161.822 21.1566 166.848 19.918 172.888 19.918C178.441 19.918 183.544 21.1566 183.656 24.275H175.889C175.664 23.4938 174.613 22.9959 172.475 22.9959C170.747 22.9959 169.549 23.416 169.549 23.9949C169.549 24.8351 171.837 24.9534 175.851 25.4731C180.354 26.052 184.855 26.9919 184.855 30.0324C184.855 33.073 179.639 34.8095 173.299 34.8095C166.322 34.8095 161.031 33.2099 160.919 29.911L160.922 29.9142Z" fill="black"/>
<path d="M183.457 29.9142H191.487C191.748 31.0532 193.401 31.5947 195.99 31.5947C197.527 31.5947 199.404 31.2742 199.404 30.4152C199.404 29.5563 197.602 29.3353 194.3 28.8965C189.797 28.2958 184.357 27.4773 184.357 24.4368C184.357 21.1566 189.383 19.918 195.424 19.918C200.976 19.918 206.079 21.1566 206.191 24.275H198.424C198.2 23.4938 197.148 22.9959 195.01 22.9959C193.282 22.9959 192.084 23.416 192.084 23.9949C192.084 24.8351 194.372 24.9534 198.386 25.4731C202.89 26.052 207.39 26.9919 207.39 30.0324C207.39 33.073 202.174 34.8095 195.834 34.8095C188.857 34.8095 183.566 33.2099 183.454 29.911L183.457 29.9142Z" fill="black"/>
<path d="M37.8112 42.3034C38.7551 42.847 39.4916 43.6214 40.0205 44.6296C40.5494 45.6378 40.8125 46.8126 40.8125 48.151C40.8125 49.4894 40.5494 50.6847 40.0205 51.6929C39.4916 52.7011 38.7551 53.4813 37.8112 54.0307C36.8673 54.5801 35.8036 54.8548 34.62 54.8548C33.4365 54.8548 32.3611 54.5801 31.4172 54.0307C30.4733 53.4813 29.731 52.7011 29.1962 51.6929C28.6585 50.6847 28.3896 49.5041 28.3896 48.151C28.3896 46.798 28.6585 45.6378 29.1962 44.6296C29.7339 43.6214 30.4733 42.8441 31.4172 42.3034C32.3611 41.7599 33.4307 41.4881 34.62 41.4881C35.8094 41.4881 36.8644 41.7599 37.8112 42.3034ZM33.3722 44.7845C33.0128 45.0563 32.741 45.48 32.554 46.0469C32.3669 46.6168 32.2734 47.3182 32.2734 48.1481C32.2734 48.978 32.3669 49.6969 32.554 50.2609C32.741 50.8249 33.0128 51.2428 33.3722 51.5146C33.7287 51.7864 34.1466 51.9237 34.62 51.9237C35.0935 51.9237 35.5172 51.7864 35.862 51.5146C36.2069 51.2428 36.4757 50.8249 36.6686 50.2609C36.8585 49.6969 36.955 48.9956 36.955 48.1481C36.955 47.3006 36.8585 46.6139 36.6686 46.0469C36.4757 45.4771 36.2098 45.0563 35.862 44.7845C35.5172 44.5127 35.1022 44.3812 34.62 44.3958C34.1466 44.3841 33.7287 44.5127 33.3722 44.7845ZM47.3292 58.8H43.2584V40.2607H47.3292V58.8Z" fill="black"/>
<path d="M51.7712 44.2848H53.6327V41.6605H57.3149V51.1698H47.9751V41.6605H51.7712V44.2877V44.2848ZM55.3306 57.4703H51.3358V52.3855H55.3306V57.4703ZM67.8148 58.4902H51.3329V55.9332H67.8148V58.4902ZM53.6327 48.642V46.6928H51.7712V48.642H53.6327ZM59.6235 47.7711H56.3388V45.2229H59.6235V47.7711ZM62.4231 53.6041H58.665V40.5091H62.4231V53.6041ZM67.3034 54.2032H63.5073V40.2607H67.3034V54.2032Z" fill="black"/>
<path d="M88.119 56.7603H67.0432V54.1828H88.119V56.7603ZM85.7841 44.057H73.4226V50.1909H69.3518V41.4795H85.7841V44.057ZM85.9068 52.0379H69.3518V49.551H85.9068V52.0379ZM85.2084 47.9729H72.2596V45.4948H85.2084V47.9729Z" fill="black"/>
<path d="M97.5786 49.2089C99.8726 49.1358 102.056 48.978 104.128 48.7384L104.303 51.0266C102.196 51.3451 99.9895 51.5585 97.6779 51.6666C95.3693 51.7747 92.9029 51.8273 90.2815 51.8273L89.9572 49.32C92.7451 49.32 95.2875 49.2849 97.5786 49.2089ZM101.033 44.1474H91.281V41.5699H101.033V44.1474ZM97.26 56.7427H93.2389V52.8267H97.26V56.7427ZM109.984 58.4902H93.2418V55.9332H109.984V58.4902ZM97.7861 50.5999H93.8146V45.9359H97.7861V50.5999ZM103.303 45.6203C103.254 46.383 103.128 47.248 102.929 48.2124L98.9959 47.9231C99.2297 46.9441 99.3729 46.0849 99.4255 45.3427C99.481 44.6004 99.5073 43.7617 99.5073 42.8295V41.5699H103.403V42.8295C103.385 43.9283 103.353 44.8576 103.303 45.6203ZM109.285 54.0453H105.165V40.2607H109.285V54.0453ZM111.708 48.3205H107.725V45.6641H111.708V48.3205Z" fill="black"/>
<path d="M122.161 47.1137H115.481V49.5801H111.46V44.7466H118.251V43.6683H111.433V41.1288H122.158V47.1108L122.161 47.1137ZM119.61 48.0722C121.095 48.0109 122.538 47.8823 123.935 47.6836L124.373 50.1617C122.941 50.4013 121.442 50.562 119.873 50.6409C118.304 50.7198 116.179 50.7608 113.499 50.7608H111.465V48.1628H113.499C116.089 48.1628 118.125 48.1336 119.61 48.0722ZM129.23 58.5692H113.786V51.918H129.23V58.5692ZM117.731 56.0122H125.285V54.4049H117.731V56.0122ZM129.23 51.2283H125.209V40.3018H129.23V51.2283ZM132.138 47.064H128.067V44.4456H132.138V47.064Z" fill="black"/>
<path d="M143.848 42.0026C144.836 42.4117 145.613 42.9815 146.183 43.7092C146.753 44.4398 147.039 45.258 147.039 46.1698C147.039 47.0816 146.753 47.894 146.183 48.6216C145.613 49.3522 144.836 49.925 143.848 50.3399C142.86 50.7549 141.773 50.9653 140.584 50.9653C139.394 50.9653 138.31 50.7578 137.314 50.3399C136.317 49.9221 135.525 49.3464 134.946 48.6129C134.368 47.8764 134.078 47.064 134.078 46.1698C134.078 45.2756 134.368 44.4368 134.946 43.7092C135.525 42.9786 136.308 42.4117 137.299 42.0026C138.29 41.5934 139.385 41.3889 140.584 41.3889C141.782 41.3889 142.863 41.5934 143.848 42.0026ZM141.282 57.1227H137.261V52.219H141.282V57.1227ZM153.255 58.4903H137.261V55.9333H153.255V58.4903ZM139.289 44.3901C138.894 44.5391 138.579 44.7671 138.345 45.0681C138.111 45.372 137.994 45.7402 137.994 46.1727C137.994 46.6052 138.111 46.9617 138.345 47.2569C138.579 47.552 138.892 47.78 139.289 47.9349C139.684 48.0927 140.116 48.1687 140.581 48.1687C141.072 48.1687 141.51 48.0927 141.899 47.9436C142.284 47.7946 142.588 47.5667 142.805 47.2657C143.021 46.9647 143.129 46.5994 143.129 46.1727C143.129 45.746 143.021 45.372 142.805 45.0681C142.588 44.7641 142.287 44.5391 141.899 44.3901C141.513 44.2411 141.072 44.168 140.581 44.1738C140.113 44.168 139.684 44.2381 139.289 44.3901ZM152.58 53.6363H148.559V40.3018H152.58V53.6363ZM155.464 48.0109H151.469V45.3924H155.464V48.0109Z" fill="black"/>
<path d="M159.234 52.8764H155.227V42.1982H159.234V52.8764ZM160.657 51.5585C161.896 51.4854 163.153 51.3568 164.427 51.1698L164.813 53.908C163.407 54.095 162.045 54.2265 160.73 54.3084C159.415 54.3873 158.123 54.4282 156.861 54.4282H155.224V51.6724H156.861C158.15 51.6724 159.415 51.6374 160.657 51.5614V51.5585ZM169.234 57.8911H165.476V40.5296H169.234V57.8882V57.8911ZM171.645 49.7203H168.124V47.172H171.645V49.7203ZM174.48 58.7386H170.645V40.2607H174.48V58.7386Z" fill="black"/>
</svg>
