<svg width="300" height="59" viewBox="0 0 300 59" fill="none" xmlns="http://www.w3.org/2000/svg">
<path d="M0 7.58516C0 3.23223 5.60974 0 13.8154 0C16.7912 0 19.4631 0.408376 21.4481 1.13967C24.2719 2.17804 25.915 3.80525 26.2569 5.65405H18.2791C18.0892 4.51438 16.2942 3.49817 13.6983 3.49817C9.91835 3.49817 8.08853 5.20767 8.08853 7.58516C8.08853 9.96265 10.2254 11.6722 13.7743 11.6722C16.5601 11.6722 18.2411 10.6971 18.5071 9.39282H26.5608C26.3328 11.001 24.9589 12.4225 23.012 13.4197C20.6851 14.6195 17.7821 15.1482 13.8154 15.1482C5.49577 15.1482 0 11.9349 0 7.582V7.58516Z" fill="black"/>
<path d="M26.2917 0.262695H34.2695V5.59069H42.6651V0.262695H50.6428V14.8031H42.6651V9.10785H34.2695V14.8031H26.2917V0.262695Z" fill="black"/>
<path d="M50.6396 7.58516C50.6396 3.23223 55.9835 0 64.4551 0C72.9266 0 78.3464 3.23223 78.3464 7.58516C78.3464 11.9381 72.9266 15.1514 64.4551 15.1514C55.9835 15.1514 50.6396 11.9381 50.6396 7.58516ZM70.2547 7.58516C70.2547 5.20451 68.3078 3.39686 64.493 3.39686C60.6783 3.39686 58.7313 5.20767 58.7313 7.58516C58.7313 9.96265 60.6783 11.7545 64.493 11.7545C68.3078 11.7545 70.2547 9.96582 70.2547 7.58516Z" fill="black"/>
<path d="M89.6228 10.1272H86.3399V14.8031H78.3622V0.262695H91.1867C94.6596 0.262695 97.1795 0.709083 98.9713 1.56384C100.918 2.47875 102.023 3.76087 102.023 5.36591C102.023 7.19572 100.152 8.66148 97.2903 9.47509L103.169 14.8031H94.3525L89.6196 10.1272H89.6228ZM86.3399 6.87282H90.9208C92.8677 6.87282 94.0897 6.30298 94.0897 5.30576C94.0897 4.30854 92.9057 3.77988 90.8448 3.77988H86.3399V6.86965V6.87282Z" fill="black"/>
<path d="M102.511 0.262695H123.769V3.71973H110.485V5.69199H121.591V8.88626H110.485V11.1624H124.149V14.8031H102.508V0.262695H102.511Z" fill="black"/>
<path d="M122.984 7.58516C122.984 3.23223 128.327 0 136.799 0C145.271 0 150.69 3.23223 150.69 7.58516C150.69 11.9381 145.271 15.1514 136.799 15.1514C128.327 15.1514 122.984 11.9381 122.984 7.58516ZM142.602 7.58516C142.602 5.20451 140.655 3.39686 136.84 3.39686C133.025 3.39686 131.075 5.20767 131.075 7.58516C131.075 9.96265 133.022 11.7545 136.84 11.7545C140.658 11.7545 142.602 9.96582 142.602 7.58516Z" fill="black"/>
<path d="M170.141 13.2582H170.065C168.349 14.5815 165.56 15.1482 162.242 15.1482C158.58 15.1482 155.449 14.477 153.236 13.2171C150.716 11.7925 149.456 9.84235 149.456 7.58516C149.456 3.29555 154.572 0 163.005 0C170.141 0 174.646 1.97226 175.523 5.20767H167.814C167.393 4.27377 165.753 3.49817 163.309 3.49817C159.491 3.49817 157.548 5.20767 157.548 7.58516C157.548 9.96265 159.76 11.7323 163.616 11.7323C166.516 11.7323 167.928 10.8997 168.425 9.9215H164.8V6.91085H176.061V14.8H170.755L170.144 13.2551L170.141 13.2582Z" fill="black"/>
<path d="M188.145 10.1272H184.862V14.8031H176.884V0.262695H189.709C193.181 0.262695 195.701 0.709083 197.493 1.56384C199.44 2.47875 200.545 3.76087 200.545 5.36591C200.545 7.19572 198.674 8.66148 195.812 9.47509L201.691 14.8031H192.874L188.141 10.1272H188.145ZM184.862 6.87282H189.443C191.39 6.87282 192.612 6.30298 192.612 5.30576C192.612 4.30854 191.428 3.77988 189.367 3.77988H184.862V6.86965V6.87282Z" fill="black"/>
<path d="M210.001 0.262695H218.131L228.246 14.8031H219.774L218.438 12.6662H209.2L207.864 14.8031H199.925L210.001 0.262695ZM210.995 9.741H216.643L214.924 6.89498C214.503 6.18268 213.895 5.02402 213.895 5.02402H213.819C213.819 5.02402 213.246 6.18268 212.79 6.89498L210.995 9.741Z" fill="black"/>
<path d="M227.166 0.262695H239.724C243.197 0.262695 245.717 0.75024 247.509 1.605C249.456 2.5199 250.561 3.84318 250.561 5.44822C250.561 8.25626 246.667 10.371 241.171 10.371H235.14V14.8031H227.163V0.262695H227.166ZM235.144 7.07543H239.455C241.402 7.07543 242.624 6.38529 242.624 5.38807C242.624 4.39086 241.44 3.77988 239.379 3.77988H235.144V7.07543Z" fill="black"/>
<path d="M249.811 0.262695H257.788V5.59069H266.184V0.262695H274.162V14.8031H266.184V9.10785H257.788V14.8031H249.811V0.262695Z" fill="black"/>
<path d="M282.465 9.69984L273.114 0.262695H281.778L284.678 3.49495C285.669 4.59347 286.511 5.83446 286.511 5.83446H286.587C286.587 5.83446 287.464 4.59347 288.458 3.49495L291.358 0.262695H299.83L290.44 9.69984V14.8031H282.462V9.69984H282.465Z" fill="black"/>
<path d="M45.1849 20.5234H53.1627L55.1476 25.5064C55.7966 27.0924 56.4836 29.5522 56.4836 29.5522H56.5595C56.5595 29.5522 57.2845 27.3773 57.9715 25.709L60.0704 20.5234H67.2851L69.3841 25.6678C70.071 27.3552 70.758 29.5522 70.758 29.5522H70.834C70.834 29.5522 71.5589 27.0924 72.2079 25.4652L74.1929 20.5234H82.3605L75.1837 35.0638H67.13L64.6861 28.9032C64.189 27.6433 63.7332 26.0762 63.7332 26.0762H63.6572C63.6572 26.0762 63.1981 27.6433 62.7043 28.9032L60.3395 35.0638H52.1718L45.1881 20.5234H45.1849Z" fill="black"/>
<path d="M79.4543 27.8459C79.4543 23.493 84.7982 20.2607 93.2697 20.2607C101.741 20.2607 107.161 23.493 107.161 27.8459C107.161 32.1989 101.741 35.4121 93.2697 35.4121C84.7982 35.4121 79.4543 32.1989 79.4543 27.8459ZM99.0726 27.8459C99.0726 25.4653 97.1256 23.6576 93.3109 23.6576C89.4962 23.6576 87.5492 25.4684 87.5492 27.8459C87.5492 30.2234 89.4962 32.0152 93.3109 32.0152C97.1256 32.0152 99.0726 30.2266 99.0726 27.8459Z" fill="black"/>
<path d="M118.438 30.388H115.155V35.0638H107.177V20.5234H120.002C123.474 20.5234 125.994 20.9698 127.786 21.8246C129.733 22.7395 130.841 24.0216 130.841 25.6267C130.841 27.4565 128.97 28.9222 126.108 29.7358L131.987 35.0638H123.17L118.438 30.388ZM115.155 27.1336H119.736C121.683 27.1336 122.905 26.5637 122.905 25.5665C122.905 24.5693 121.721 24.0406 119.66 24.0406H115.155V27.1304V27.1336Z" fill="black"/>
<path d="M131.326 20.5234H139.303V25.2816L147.547 20.5234H156.706L146.515 26.3801L157.279 35.0638H148.003L141.057 29.3085L139.3 30.3658V35.0638H131.322V20.5234H131.326Z" fill="black"/>
<path d="M153.632 30.4292H161.799C162.065 31.5878 163.746 32.1387 166.38 32.1387C167.944 32.1387 169.853 31.8126 169.853 30.9388C169.853 30.0651 168.02 29.8404 164.661 29.394C160.08 28.783 154.546 27.9504 154.546 24.8574C154.546 21.5207 159.659 20.2607 165.804 20.2607C171.452 20.2607 176.644 21.5207 176.758 24.6928H168.856C168.628 23.8982 167.558 23.3917 165.383 23.3917C163.626 23.3917 162.407 23.8191 162.407 24.4079C162.407 25.2627 164.734 25.383 168.818 25.9116C173.399 26.5005 177.976 27.4565 177.976 30.5495C177.976 33.6424 172.671 35.4089 166.222 35.4089C159.124 35.4089 153.742 33.7817 153.628 30.426L153.632 30.4292Z" fill="black"/>
<path d="M177.957 20.5234H185.935V25.8514H194.331V20.5234H202.308V35.0638H194.331V29.3686H185.935V35.0638H177.957V20.5234Z" fill="black"/>
<path d="M202.305 27.8459C202.305 23.493 207.649 20.2607 216.121 20.2607C224.592 20.2607 230.012 23.493 230.012 27.8459C230.012 32.1989 224.592 35.4121 216.121 35.4121C207.649 35.4121 202.305 32.1989 202.305 27.8459ZM221.92 27.8459C221.92 25.4653 219.973 23.6576 216.155 23.6576C212.337 23.6576 210.394 25.4684 210.394 27.8459C210.394 30.2234 212.341 32.0152 216.155 32.0152C219.97 32.0152 221.92 30.2266 221.92 27.8459Z" fill="black"/>
<path d="M230.028 20.5234H242.586C246.059 20.5234 248.579 21.011 250.371 21.8657C252.318 22.7806 253.423 24.1039 253.423 25.709C253.423 28.517 249.529 30.6317 244.033 30.6317H238.002V35.0638H230.025V20.5234H230.028ZM238.005 27.3362H242.317C244.264 27.3362 245.486 26.646 245.486 25.6488C245.486 24.6516 244.302 24.0406 242.241 24.0406H238.005V27.3362Z" fill="black"/>
<path d="M105.726 46.6542C105.285 47.597 104.581 48.4164 103.614 49.1121C102.647 49.8078 101.398 50.3075 99.8696 50.611L98 48.1585C99.2545 47.906 100.27 47.5379 101.046 47.0571C101.823 46.5763 102.379 46.039 102.709 45.448C103.042 44.8571 103.209 44.2312 103.209 43.573V42.9847H106.386V43.573C106.386 44.6825 106.166 45.7086 105.726 46.6542ZM111.482 43.9706H98.9348V41.4697H111.482V43.9706ZM116.753 58.0976H101.363V51.2799H116.753V58.0976ZM107.222 42.5872H103.209V39.7666H107.222V42.5872ZM107.695 45.2869C108.028 45.8375 108.581 46.3399 109.357 46.7912C110.134 47.2425 111.141 47.5944 112.38 47.8469L110.561 50.3102C109.032 50.0174 107.775 49.5365 106.792 48.8703C105.806 48.2014 105.089 47.4171 104.635 46.5118C104.181 45.6092 103.955 44.6287 103.955 43.5703V42.9821H107.195V43.5703C107.195 44.1613 107.362 44.7335 107.695 45.2842V45.2869ZM105.328 55.5457H112.817V53.8023H105.328V55.5457ZM116.753 50.56H112.739V39.823H116.753V50.56ZM119.632 46.5333H115.619V43.941H119.632V46.5333Z" fill="black"/>
<path d="M128.543 41.8648C129.464 42.4074 130.187 43.1811 130.71 44.1884C131.234 45.1958 131.495 46.367 131.495 47.702C131.495 49.0371 131.234 50.2298 130.71 51.2372C130.187 52.2445 129.464 53.0208 128.543 53.5688C127.621 54.1168 126.568 54.3908 125.389 54.3908C124.21 54.3908 123.17 54.1195 122.243 53.5796C121.317 53.0369 120.591 52.2606 120.062 51.2479C119.536 50.2352 119.27 49.0532 119.27 47.7047C119.27 46.3562 119.533 45.1984 120.062 44.1911C120.591 43.1838 121.317 42.4101 122.243 41.8675C123.17 41.3249 124.218 41.0562 125.389 41.0562C126.56 41.0562 127.619 41.3276 128.543 41.8675V41.8648ZM124.183 44.3496C123.834 44.629 123.57 45.048 123.39 45.6094C123.21 46.1709 123.122 46.8666 123.122 47.6967C123.122 48.5267 123.21 49.2439 123.39 49.8054C123.568 50.3668 123.834 50.7832 124.183 51.0572C124.532 51.3285 124.935 51.4655 125.392 51.4655C125.872 51.4655 126.286 51.3285 126.633 51.0572C126.977 50.7859 127.24 50.3668 127.425 49.8054C127.608 49.2439 127.699 48.5401 127.699 47.6967C127.699 46.8532 127.602 46.1494 127.412 45.588C127.221 45.0265 126.958 44.6102 126.619 44.3362C126.283 44.0648 125.872 43.9332 125.392 43.9466C124.935 43.9332 124.532 44.0675 124.183 44.3442V44.3496ZM135.234 45.956H129.252V43.4148H135.234V45.956ZM135.234 51.5783H129.252V49.0371H135.234V51.5783ZM138.611 58.3262H134.635V39.8232H138.611V58.3262Z" fill="black"/>
<path d="M146.237 48.7919C145.797 50.17 145.095 51.3949 144.131 52.4614C143.167 53.5278 141.95 54.3283 140.48 54.8575L138.176 52.3458C139.505 51.8543 140.577 51.1881 141.396 50.3473C142.216 49.5065 142.809 48.5824 143.177 47.575C143.548 46.5677 143.731 45.5227 143.731 44.4402V42.8848H146.895V44.4402C146.895 45.9633 146.675 47.4139 146.234 48.7919H146.237ZM152.069 44.1393H139.159V41.5471H152.069V44.1393ZM148.306 47.3413C148.663 48.2923 149.246 49.168 150.057 49.9685C150.866 50.769 151.91 51.4083 153.192 51.8865L151 54.3793C149.539 53.8689 148.332 53.098 147.387 52.0665C146.439 51.0376 145.743 49.8664 145.294 48.5582C144.846 47.25 144.623 45.8773 144.623 44.4402V42.8848H147.776V44.4402C147.776 45.4234 147.954 46.3904 148.311 47.3413H148.306ZM157.202 58.2663H153.189V39.8252H157.202V58.2663ZM160.332 49.2647H156.332V46.6134H160.332V49.2647Z" fill="black"/>
<path d="M171.843 41.5639C172.826 41.9722 173.605 42.5417 174.172 43.2697C174.738 43.9977 175.026 44.817 175.026 45.7276C175.026 46.6383 174.741 47.4468 174.172 48.1748C173.602 48.9028 172.826 49.475 171.843 49.8886C170.857 50.305 169.771 50.5119 168.584 50.5119C167.397 50.5119 166.317 50.305 165.32 49.8886C164.324 49.4723 163.537 48.8974 162.959 48.1641C162.382 47.4307 162.094 46.6168 162.094 45.7276C162.094 44.8385 162.382 43.9977 162.959 43.2697C163.537 42.5417 164.318 41.9749 165.307 41.5639C166.295 41.1556 167.389 40.9515 168.584 40.9515C169.779 40.9515 170.859 41.1556 171.843 41.5639ZM169.283 56.6526H165.269V51.7583H169.283V56.6526ZM181.231 58.0173H165.269V55.4653H181.231V58.0173ZM167.295 43.9466C166.9 44.0971 166.586 44.3227 166.355 44.6236C166.121 44.9271 166.005 45.2924 166.005 45.7249C166.005 46.1574 166.121 46.512 166.355 46.8075C166.588 47.103 166.9 47.3286 167.295 47.4844C167.69 47.6402 168.119 47.7181 168.584 47.7181C169.073 47.7181 169.514 47.6429 169.898 47.4952C170.285 47.3447 170.585 47.1191 170.8 46.8182C171.015 46.5174 171.125 46.1521 171.125 45.7276C171.125 45.3032 171.018 44.9298 170.8 44.6263C170.585 44.3254 170.282 44.0971 169.898 43.9493C169.511 43.7989 169.073 43.729 168.584 43.7344C168.119 43.729 167.69 43.7989 167.295 43.9493V43.9466ZM180.559 53.1739H176.546V39.8662H180.559V53.1739ZM183.436 47.5597H179.45V44.9486H183.436V47.5597Z" fill="black"/>
<path d="M187.2 52.4157H183.2V41.7593H187.2V52.4157ZM188.618 51.0994C189.857 51.0269 191.111 50.8979 192.382 50.7099L192.768 53.4418C191.363 53.6272 190.007 53.7615 188.693 53.8394C187.38 53.92 186.093 53.9603 184.831 53.9603H183.197V51.2096H184.831C186.117 51.2096 187.38 51.1719 188.618 51.0994ZM197.179 57.4175H193.429V40.0911H197.179V57.4175ZM199.583 49.2647H196.07V46.7235H199.583V49.2647ZM202.412 58.2663H198.587V39.8252H202.412V58.2663Z" fill="black"/>
</svg>
