<svg width="224" height="59" viewBox="0 0 224 59" fill="none" xmlns="http://www.w3.org/2000/svg">
<g clip-path="url(#clip0_109_1477)">
<path d="M56.2673 0.27832H64.8989L75.6381 15.6876H66.6434L65.225 13.423H55.4202L54.0018 15.6876H45.5718L56.2673 0.27832ZM57.3227 10.323H63.3191L61.4974 7.30692C61.0503 6.55206 60.4016 5.32415 60.4016 5.32415H60.3209C60.3209 5.32415 59.7125 6.55206 59.2285 7.30692L57.3227 10.323Z" fill="black"/>
<path d="M74.4919 0.27832H89.4865C92.3233 0.27832 94.4308 0.644009 95.9703 1.27138C97.7114 1.98263 98.7265 3.03944 98.7265 4.31096C98.7265 5.77707 97.5501 6.70303 95.1199 7.26331V7.32705C98.2795 7.8672 100.105 9.28969 100.105 11.0343C100.105 12.7788 98.8475 13.943 96.7804 14.718C95.0392 15.3655 92.767 15.6876 89.7688 15.6876H74.4919V0.27832ZM88.0646 6.27025C89.6848 6.27025 90.7805 5.86094 90.7805 5.04234C90.7805 4.22373 89.6444 3.77081 88.0243 3.77081H82.7976V6.27025H88.0646ZM88.8344 12.1548C90.6595 12.1548 91.9133 11.5744 91.9133 10.6451C91.9133 9.65538 90.5352 9.15885 88.794 9.15885H82.7976V12.1548H88.8344Z" fill="black"/>
<path d="M98.5483 8.03844C98.5483 3.42539 104.222 0 113.217 0C122.211 0 127.966 3.42539 127.966 8.03844C127.966 12.6515 122.211 16.0567 113.217 16.0567C104.222 16.0567 98.5483 12.6515 98.5483 8.03844ZM119.378 8.03844C119.378 5.51552 117.311 3.59985 113.257 3.59985C109.203 3.59985 107.14 5.51888 107.14 8.03844C107.14 10.558 109.207 12.4569 113.257 12.4569C117.307 12.4569 119.378 10.5614 119.378 8.03844Z" fill="black"/>
<path d="M127.717 9.80635V0.27832H136.188V10.0613C136.188 11.4838 137.646 12.3662 140.766 12.3662C143.643 12.3662 145.102 11.3731 145.102 9.9741V0.27832H153.572V9.803C153.572 13.5974 149.317 15.966 140.645 15.966C131.972 15.966 127.717 13.6612 127.717 9.803V9.80635Z" fill="black"/>
<path d="M152.654 0.27832H177.615V4.11302H169.309V15.6876H160.839V4.11637H152.654V0.27832Z" fill="black"/>
<path d="M20.2784 21.75H28.7488V27.3964H37.6628V21.75H46.1331V37.1592H37.6628V31.1237H28.7488V37.1592H20.2784V21.75Z" fill="black"/>
<path d="M46.1263 29.5101C46.1263 24.8971 51.8001 21.4717 60.7948 21.4717C69.7895 21.4717 75.5439 24.8971 75.5439 29.5101C75.5439 34.1232 69.7895 37.5284 60.7948 37.5284C51.8001 37.5284 46.1263 34.1232 46.1263 29.5101ZM66.956 29.5101C66.956 26.9872 64.8888 25.0715 60.8385 25.0715C56.7882 25.0715 54.7177 26.9906 54.7177 29.5101C54.7177 32.0297 56.7848 33.9286 60.8385 33.9286C64.8922 33.9286 66.956 32.033 66.956 29.5101Z" fill="black"/>
<path d="M75.2952 31.278V21.7534H83.7655V31.5364C83.7655 32.9589 85.2243 33.8412 88.3435 33.8412C91.2207 33.8412 92.6795 32.8481 92.6795 31.4491V21.75H101.15V31.2747C101.15 35.0691 96.8945 37.4377 88.2225 37.4377C79.5505 37.4377 75.2952 35.1329 75.2952 31.2747V31.278Z" fill="black"/>
<path d="M100.518 32.2478H109.19C109.472 33.4757 111.257 34.0594 114.054 34.0594C115.714 34.0594 117.741 33.7139 117.741 32.7879C117.741 31.8619 115.795 31.6237 112.229 31.1507C107.365 30.5032 101.489 29.6208 101.489 26.3431C101.489 22.8069 106.921 21.4717 113.445 21.4717C119.442 21.4717 124.954 22.8069 125.075 26.1686H116.686C116.444 25.3265 115.307 24.7897 112.998 24.7897C111.133 24.7897 109.839 25.2426 109.839 25.8667C109.839 26.7725 112.309 26.9 116.645 27.4602C121.509 28.0843 126.369 29.0975 126.369 32.3752C126.369 35.653 120.736 37.5251 113.889 37.5251C106.353 37.5251 100.639 35.8006 100.515 32.2444L100.518 32.2478Z" fill="black"/>
<path d="M126.346 21.75H148.917V25.4136H134.813V27.5037H146.604V30.8889H134.813V33.3011H149.32V37.1592H126.342V21.75H126.346Z" fill="black"/>
<path d="M153.01 29.5101C153.01 24.8971 158.684 21.4717 167.679 21.4717C176.674 21.4717 182.428 24.8971 182.428 29.5101C182.428 34.1232 176.674 37.5284 167.679 37.5284C158.684 37.5284 153.01 34.1232 153.01 29.5101ZM173.84 29.5101C173.84 26.9872 171.773 25.0715 167.719 25.0715C163.666 25.0715 161.602 26.9906 161.602 29.5101C161.602 32.0297 163.669 33.9286 167.719 33.9286C171.77 33.9286 173.84 32.033 173.84 29.5101Z" fill="black"/>
<path d="M182.445 21.75H204.774V25.5444H190.915V28.0674H202.384V31.5598H190.915V37.1626H182.445V21.7534V21.75Z" fill="black"/>
<path d="M21.9624 56.9939H21.8818C20.06 58.3962 17.0987 58.9968 13.5761 58.9968C9.68716 58.9968 6.36289 58.2855 4.01338 56.9502C1.33783 55.4405 0.00341797 53.3739 0.00341797 50.9818C0.00341797 46.4359 5.43183 42.9434 14.3895 42.9434C21.9658 42.9434 26.7488 45.0335 27.6799 48.4622H19.4953C19.0482 47.4692 17.3071 46.6506 14.7122 46.6506C10.6586 46.6506 8.59476 48.4622 8.59476 50.9818C8.59476 53.5014 10.9443 55.3768 15.0383 55.3768C18.1172 55.3768 19.6163 54.4944 20.144 53.4577H16.2954V50.2672H28.2479V58.6277H22.6145L21.9658 56.9905L21.9624 56.9939Z" fill="black"/>
<path d="M41.0778 53.6757H37.5922V58.6309H29.1218V43.2217H42.7382C46.4255 43.2217 49.1011 43.6947 51.0035 44.6006C53.0707 45.5701 54.2471 46.9289 54.2471 48.6298C54.2471 50.569 52.2606 52.1223 49.2221 52.9846L55.4639 58.6309H46.1028L41.0778 53.6757ZM37.5922 50.2268H42.4559C44.523 50.2268 45.8205 49.6229 45.8205 48.5661C45.8205 47.5093 44.5634 46.949 42.3752 46.949H37.5922V50.2234V50.2268Z" fill="black"/>
<path d="M54.7614 43.2217H77.3322V46.8853H63.2284V48.9754H75.0196V52.3605H63.2284V54.7727H77.7355V58.6309H54.7581V43.2217H54.7614Z" fill="black"/>
<path d="M86.9991 43.2217H95.6308L106.37 58.6309H97.3753L95.9569 56.3663H86.1487L84.7303 58.6309H76.3003L86.9991 43.2217ZM88.0512 53.2664H94.0477L92.2259 50.2503C91.7788 49.4954 91.1335 48.2675 91.1335 48.2675H91.0528C91.0528 48.2675 90.4444 49.4954 89.9604 50.2503L88.0546 53.2664H88.0512Z" fill="black"/>
<path d="M100.323 43.2217H125.284V47.0564H116.978V58.6309H108.508V47.0564H100.323V43.2217Z" fill="black"/>
<path d="M124.464 43.2217H132.934L142.416 51.8841H142.497V43.2217H150.681V58.6309H141.929L132.729 49.9014H132.648V58.6309H124.464V43.2217Z" fill="black"/>
<path d="M151.992 43.2217H174.563V46.8853H160.459V48.9754H172.25V52.3605H160.459V54.7727H174.966V58.6309H151.989V43.2217H151.992Z" fill="black"/>
<path d="M173.807 53.7194H182.479C182.761 54.9473 184.546 55.5311 187.342 55.5311C189.003 55.5311 191.03 55.1855 191.03 54.2596C191.03 53.3336 189.083 53.0954 185.517 52.6224C180.653 51.9749 174.778 51.0925 174.778 47.8147C174.778 44.2786 180.206 42.9434 186.731 42.9434C192.727 42.9434 198.239 44.2786 198.36 47.6403H189.971C189.729 46.7982 188.593 46.2614 186.284 46.2614C184.418 46.2614 183.124 46.7143 183.124 47.3383C183.124 48.2442 185.594 48.3717 189.93 48.9319C194.794 49.556 199.655 50.5691 199.655 53.8469C199.655 57.1247 194.021 58.9968 187.174 58.9968C179.638 58.9968 173.924 57.2723 173.803 53.7161L173.807 53.7194Z" fill="black"/>
<path d="M198.145 53.7194H206.817C207.1 54.9473 208.885 55.5311 211.681 55.5311C213.342 55.5311 215.368 55.1855 215.368 54.2596C215.368 53.3336 213.422 53.0954 209.856 52.6224C204.992 51.9749 199.117 51.0925 199.117 47.8147C199.117 44.2786 204.545 42.9434 211.069 42.9434C217.066 42.9434 222.578 44.2786 222.699 47.6403H214.31C214.068 46.7982 212.931 46.2614 210.622 46.2614C208.757 46.2614 207.463 46.7143 207.463 47.3383C207.463 48.2442 209.933 48.3717 214.269 48.9319C219.133 49.556 223.993 50.5691 223.993 53.8469C223.993 57.1247 218.36 58.9968 211.513 58.9968C203.977 58.9968 198.263 57.2723 198.142 53.7161L198.145 53.7194Z" fill="black"/>
</g>
<defs>
<clipPath id="clip0_109_1477">
<rect width="224" height="59" fill="white"/>
</clipPath>
</defs>
</svg>
