<svg width="149" height="16" viewBox="0 0 149 16" fill="none" xmlns="http://www.w3.org/2000/svg">
<g clip-path="url(#clip0_25_7401)">
<path d="M0 0.277832H8.42684V15.6335H0V0.277832Z" fill="black"/>
<path d="M21.7714 10.6939H18.3035V15.6335H9.87671V0.277832H23.4232C27.0929 0.277832 29.7536 0.751796 31.6482 1.65159C33.7036 2.61803 34.8732 3.96957 34.8732 5.66918C34.8732 7.60206 32.8964 9.14985 29.8732 10.0089L36.0803 15.6372H26.7678L21.7677 10.6976L21.7714 10.6939ZM18.3035 7.2577H23.1429C25.1982 7.2577 26.4875 6.65784 26.4875 5.60253C26.4875 4.54721 25.2393 3.99179 23.0607 3.99179H18.3035V7.2577Z" fill="black"/>
<path d="M35.9197 0.277832H44.3465V11.79H56.6822V15.6335H35.9197V0.277832Z" fill="black"/>
<path d="M60.875 0.277832H69.3018V15.6335H60.875V0.277832Z" fill="black"/>
<path d="M70.752 0.277832H79.1788L88.6109 8.91287H88.6931V0.277832H96.8359V15.6335H88.1288L78.977 6.93555H78.8985V15.6335H70.7557V0.277832H70.752Z" fill="black"/>
<path d="M98.2856 0.277832H120.498V4.05844H106.712V6.57267H118.121V10.0533H106.712V15.6372H98.2856V0.277832Z" fill="black"/>
<path d="M119.732 8.00926C119.732 3.41402 125.375 0 134.325 0C143.275 0 149 3.41402 149 8.00926C149 12.6045 143.275 16 134.325 16C125.375 16 119.732 12.6082 119.732 8.00926ZM140.454 8.00926C140.454 5.49502 138.398 3.58436 134.366 3.58436C130.334 3.58436 128.279 5.49502 128.279 8.00926C128.279 10.5235 130.334 12.4119 134.366 12.4119C138.398 12.4119 140.454 10.5235 140.454 8.00926Z" fill="black"/>
</g>
<defs>
<clipPath id="clip0_25_7401">
<rect width="149" height="16" fill="white"/>
</clipPath>
</defs>
</svg>
