<svg width="185" height="36" viewBox="0 0 185 36" fill="none" xmlns="http://www.w3.org/2000/svg">
<g clip-path="url(#clip0_176_23)">
<path d="M0 10.3372H8.33319C8.6045 11.5151 10.3196 12.0751 13.0069 12.0751C14.6025 12.0751 16.5501 11.7436 16.5501 10.8554C16.5501 9.9671 14.68 9.7386 11.253 9.28482C6.57934 8.66369 0.933446 7.81727 0.933446 4.67298C0.933446 1.28089 6.15299 0 12.4223 0C18.1844 0 23.4815 1.28089 23.5978 4.50563H15.5359C15.3034 3.69784 14.2116 3.18291 11.9927 3.18291C10.2001 3.18291 8.95656 3.61738 8.95656 4.21598C8.95656 5.08493 11.3306 5.20722 15.4971 5.74468C20.1708 6.34329 24.8413 7.31521 24.8413 10.4595C24.8413 13.6038 19.428 15.3996 12.8486 15.3996C5.60714 15.4028 0.116277 13.7486 0 10.3372Z" fill="black"/>
<path d="M24.8187 0.270508H46.5076V3.7849H32.9548V5.78991H44.2854V9.03718H32.9548V11.3511H46.8951V15.0522H24.8154V0.270508H24.8187Z" fill="black"/>
<path d="M47.4604 0.270508H55.5998V11.3511H67.515V15.0522H47.4604V0.270508Z" fill="black"/>
<path d="M66.6495 0.270508H88.3384V3.7849H74.7856V5.78991H86.1162V9.03718H74.7856V11.3511H88.726V15.0522H66.6462V0.270508H66.6495Z" fill="black"/>
<path d="M87.5372 7.71107C87.5372 3.28589 93.2606 0 101.633 0C104.669 0 107.395 0.415162 109.42 1.15859C112.301 2.2142 113.977 3.86841 114.326 5.7479H106.187C105.993 4.58931 104.162 3.55623 101.513 3.55623C97.6565 3.55623 95.7896 5.29412 95.7896 7.71107C95.7896 10.128 97.9698 11.8659 101.591 11.8659C104.433 11.8659 106.148 10.8747 106.419 9.55194H114.636C114.404 11.1868 113.002 12.6319 111.015 13.6456C108.641 14.8654 105.68 15.4028 101.629 15.4028C93.1411 15.4028 87.5339 12.1362 87.5339 7.71107H87.5372Z" fill="black"/>
<path d="M112.724 0.270508H136.709V3.94903H128.728V15.0522H120.589V3.94903H112.724V0.270508Z" fill="black"/>
<path d="M135.918 0.270508H157.607V3.7849H144.054V5.78991H155.385V9.03718H144.054V11.3511H157.995V15.0522H135.915V0.270508H135.918Z" fill="black"/>
<path d="M158.56 0.270508H171.412C179.432 0.270508 185.003 2.99963 185.003 7.69193C185.003 12.3842 179.706 15.0522 171.063 15.0522H158.563V0.270508H158.56ZM170.397 11.4734C174.134 11.4734 176.744 10.1926 176.744 7.68871C176.744 5.18486 174.293 3.84283 170.397 3.84283H166.699V11.4702H170.397V11.4734Z" fill="black"/>
<path d="M6.72461 20.8677H19.5732C27.5963 20.8677 33.1647 23.5968 33.1647 28.2891C33.1647 32.9814 27.8677 35.6494 19.2244 35.6494H6.72461V20.8677ZM18.5623 32.0706C22.2993 32.0706 24.909 30.7897 24.909 28.2859C24.909 25.782 22.4575 24.44 18.5623 24.44H14.864V32.0674H18.5623V32.0706Z" fill="black"/>
<path d="M39.8604 20.8677H48.1548L58.4744 35.6494H49.8312L48.4681 33.477H39.0432L37.6802 35.6494H29.5796L39.8604 20.8677ZM40.8714 30.5001H46.6336L44.8829 27.6068C44.4534 26.8827 43.8332 25.7048 43.8332 25.7048H43.7557C43.7557 25.7048 43.1711 26.8827 42.706 27.6068L40.8746 30.5001H40.8714Z" fill="black"/>
<path d="M57.3699 20.8677H65.5093L74.6209 29.1774H74.6984V20.8677H82.5632V35.6494H74.1525L65.3122 27.2753H65.2347V35.6494H57.3699V20.8677Z" fill="black"/>
<path d="M82.5598 28.3082C82.5598 23.8831 88.2832 20.5972 96.6552 20.5972C99.6913 20.5972 102.417 21.0123 104.443 21.7558C107.324 22.8114 109 24.4656 109.349 26.3451H101.209C101.016 25.1865 99.1842 24.1534 96.5357 24.1534C92.6824 24.1534 90.8123 25.8913 90.8123 28.3082C90.8123 30.7252 92.9924 32.4631 96.6132 32.4631C99.4555 32.4631 101.171 31.4718 101.442 30.1491H109.659C109.426 31.784 108.024 33.229 106.038 34.2428C103.664 35.4625 100.702 36 96.6552 36C88.167 36 82.5598 32.7334 82.5598 28.3082Z" fill="black"/>
<path d="M109.384 20.8677H131.073V24.3821H117.521V26.3871H128.851V29.6344H117.521V31.9483H131.461V35.6494H109.381V20.8677H109.384Z" fill="black"/>
<path d="M143.512 30.8925H140.162V35.6459H132.023V20.8643H145.107C148.651 20.8643 151.222 21.318 153.05 22.187C155.036 23.1171 156.163 24.4205 156.163 26.0522C156.163 27.9124 154.254 29.4024 151.335 30.2295L157.333 35.6459H148.337L143.509 30.8925H143.512ZM140.166 27.5841H144.839C146.826 27.5841 148.072 27.0048 148.072 25.991C148.072 24.9773 146.864 24.4398 144.762 24.4398H140.166V27.5809V27.5841Z" fill="black"/>
<path d="M154.91 30.9344H163.243C163.514 32.1123 165.23 32.6723 167.917 32.6723C169.512 32.6723 171.46 32.3408 171.46 31.4525C171.46 30.5643 169.59 30.3358 166.163 29.882C161.489 29.2609 155.843 28.4144 155.843 25.2702C155.843 21.8781 161.06 20.5972 167.329 20.5972C173.091 20.5972 178.388 21.8781 178.505 25.1028H170.443C170.21 24.295 169.118 23.7801 166.899 23.7801C165.107 23.7801 163.863 24.2145 163.863 24.8132C163.863 25.6821 166.237 25.8044 170.404 26.3418C175.078 26.9405 179.748 27.9124 179.748 31.0567C179.748 34.201 174.335 35.9968 167.755 35.9968C160.514 35.9968 155.023 34.3426 154.907 30.9312L154.91 30.9344Z" fill="black"/>
</g>
<defs>
<clipPath id="clip0_176_23">
<rect width="185" height="36" fill="white"/>
</clipPath>
</defs>
</svg>
