<svg width="254" height="36" viewBox="0 0 254 36" fill="none" xmlns="http://www.w3.org/2000/svg">
<path d="M34.2869 10.3372H42.5581C42.8274 11.5151 44.5297 12.0751 47.197 12.0751C48.7807 12.0751 50.7139 11.7436 50.7139 10.8554C50.7139 9.9671 48.8577 9.7386 45.4562 9.28482C40.8173 8.66369 35.2134 7.81727 35.2134 4.67298C35.2134 1.28089 40.3941 0 46.6168 0C52.3361 0 57.5937 1.28089 57.7091 4.50563H49.7072C49.4764 3.70106 48.3928 3.18291 46.1903 3.18291C44.4111 3.18291 43.1768 3.61738 43.1768 4.21598C43.1768 5.08493 45.5332 5.20722 49.6688 5.74468C54.3077 6.34329 58.9434 7.31522 58.9434 10.4595C58.9434 13.6038 53.5703 15.3996 47.0399 15.3996C39.8523 15.3996 34.4023 13.7454 34.2869 10.334V10.3372Z" fill="black"/>
<path d="M58.9212 0.267578H80.4487V3.78197H66.9968V5.78698H78.2431V9.03103H66.9968V11.3482H80.8334V15.0493H58.918V0.267578H58.9212Z" fill="black"/>
<path d="M81.394 0.267578H89.4729V11.3482H101.299V15.0493H81.394V0.267578Z" fill="black"/>
<path d="M100.44 0.267578H121.968V3.78197H108.516V5.78698H119.762V9.03103H108.516V11.3482H122.352V15.0493H100.437V0.267578H100.44Z" fill="black"/>
<path d="M121.173 7.71107C121.173 3.28589 126.854 0 135.163 0C138.177 0 140.883 0.415162 142.893 1.15859C145.752 2.2142 147.416 3.86841 147.763 5.7479H139.684C139.491 4.58931 137.674 3.55623 135.045 3.55623C131.217 3.55623 129.364 5.29412 129.364 7.71107C129.364 10.128 131.528 11.8659 135.122 11.8659C137.943 11.8659 139.645 10.8747 139.915 9.55194H148.07C147.84 11.1868 146.448 12.6319 144.477 13.6456C142.117 14.8654 139.18 15.4028 135.16 15.4028C126.735 15.4028 121.17 12.1362 121.17 7.71107H121.173Z" fill="black"/>
<path d="M146.169 0.267578H169.98V3.94611H162.058V15.0493H153.979V3.94932H146.173V0.267578H146.169Z" fill="black"/>
<path d="M169.194 0.267578H190.722V3.78197H177.27V5.78698H188.516V9.03103H177.27V11.3482H191.106V15.0493H169.191V0.267578H169.194Z" fill="black"/>
<path d="M191.664 0.267578H204.42C212.384 0.267578 217.91 2.9967 217.91 7.689C217.91 12.3813 212.653 15.0493 204.074 15.0493H191.667V0.267578H191.664ZM203.413 11.4737C207.123 11.4737 209.713 10.1928 209.713 7.689C209.713 5.18515 207.277 3.84312 203.413 3.84312H199.743V11.4737H203.413Z" fill="black"/>
<path d="M0.00641804 20.8647H12.721C16.2379 20.8647 18.7897 21.3604 20.6043 22.2293C22.5759 23.1594 23.6948 24.5047 23.6948 26.1363C23.6948 28.991 19.7515 31.1408 14.1861 31.1408H8.07883V35.6464H0V20.8647H0.00641804ZM8.08525 27.7938H12.4517C14.4233 27.7938 15.6608 27.0922 15.6608 26.0784C15.6608 25.0646 14.4618 24.4435 12.3747 24.4435H8.08525V27.7938Z" fill="black"/>
<path d="M29.1316 20.8647H37.3643L47.6071 35.6464H39.0282L37.6753 33.4741H28.3205L26.9676 35.6464H18.9272L29.1316 20.8647ZM30.135 30.5004H35.8543L34.1136 27.6071C33.6872 26.883 33.0716 25.7051 33.0716 25.7051H32.9947C32.9947 25.7051 32.4144 26.883 31.9528 27.6071L30.135 30.5004Z" fill="black"/>
<path d="M57.9144 30.8927H54.5899V35.6494H46.511V20.8677H59.4981C63.0149 20.8677 65.5668 21.3215 67.3814 22.1904C69.353 23.1205 70.4719 24.4239 70.4719 26.0556C70.4719 27.9158 68.5772 29.4059 65.679 30.233L71.6324 35.6494H62.7039L57.9112 30.8927H57.9144ZM54.5899 27.5843H59.2288C61.2004 27.5843 62.4379 27.005 62.4379 25.9912C62.4379 24.9775 61.2389 24.44 59.1518 24.44H54.5899V27.5811V27.5843Z" fill="black"/>
<path d="M69.3882 20.8647H93.1983V24.5433H85.2766V35.6464H77.1977V24.5433H69.3914V20.8647H69.3882Z" fill="black"/>
<path d="M92.4097 20.8647H100.488V35.6464H92.4097V20.8647Z" fill="black"/>
<path d="M100.479 28.3082C100.479 23.8831 106.16 20.5972 114.469 20.5972C117.483 20.5972 120.189 21.0123 122.199 21.7558C125.058 22.8114 126.719 24.4656 127.068 26.3451H118.99C118.797 25.1865 116.979 24.1534 114.351 24.1534C110.523 24.1534 108.67 25.8913 108.67 28.3082C108.67 30.7252 110.834 32.4631 114.428 32.4631C117.249 32.4631 118.951 31.4718 119.22 30.1491H127.376C127.145 31.784 125.754 33.229 123.782 34.2428C121.426 35.4625 118.486 36 114.469 36C106.044 36 100.479 32.7334 100.479 28.3082Z" fill="black"/>
<path d="M127.171 20.8647H135.25V35.6464H127.171V20.8647Z" fill="black"/>
<path d="M136.423 20.8647H149.138C152.655 20.8647 155.207 21.3604 157.021 22.2293C158.993 23.1594 160.112 24.5047 160.112 26.1363C160.112 28.991 156.168 31.1408 150.603 31.1408H144.496V35.6464H136.417V20.8647H136.423ZM144.502 27.7938H148.869C150.84 27.7938 152.078 27.0922 152.078 26.0784C152.078 25.0646 150.879 24.4435 148.792 24.4435H144.502V27.7938Z" fill="black"/>
<path d="M165.546 20.8647H173.779L184.021 35.6464H175.442L174.09 33.4741H164.735L163.382 35.6464H155.342L165.546 20.8647ZM166.549 30.5004H172.269L170.528 27.6071C170.101 26.883 169.483 25.7051 169.483 25.7051H169.406C169.406 25.7051 168.826 26.883 168.361 27.6071L166.543 30.5004H166.549Z" fill="black"/>
<path d="M182.925 20.8647H191.003L200.047 29.1744H200.124V20.8647H207.931V35.6464H199.582L190.808 27.2724H190.731V35.6464H182.925V20.8647Z" fill="black"/>
<path d="M207.149 20.8647H230.959V24.5433H223.037V35.6464H214.958V24.5433H207.152V20.8647H207.149Z" fill="black"/>
<path d="M228.997 30.9344H237.268C237.537 32.1123 239.24 32.6723 241.907 32.6723C243.491 32.6723 245.424 32.3408 245.424 31.4525C245.424 30.5643 243.568 30.3358 240.169 29.882C235.53 29.2609 229.927 28.4144 229.927 25.2702C229.927 21.8781 235.104 20.5972 241.327 20.5972C247.046 20.5972 252.304 21.8781 252.419 25.1028H244.417C244.186 24.2982 243.103 23.7801 240.9 23.7801C239.124 23.7801 237.887 24.2145 237.887 24.8132C237.887 25.6821 240.243 25.8044 244.379 26.3418C249.018 26.9405 253.653 27.9124 253.653 31.0567C253.653 34.201 248.28 35.9968 241.75 35.9968C234.562 35.9968 229.112 34.3426 228.997 30.9312V30.9344Z" fill="black"/>
</svg>
