<svg width="183" height="36" viewBox="0 0 183 36" fill="none" xmlns="http://www.w3.org/2000/svg">
<g clip-path="url(#clip0_110_48)">
<path d="M0 10.3372H8.24324C8.51163 11.5151 10.2082 12.0751 12.8665 12.0751C14.4448 12.0751 16.3715 11.7436 16.3715 10.8554C16.3715 9.9671 14.5215 9.7386 11.1316 9.28482C6.50833 8.66369 0.923371 7.81727 0.923371 4.67298C0.923371 1.28089 6.08658 0 12.2882 0C17.9882 0 23.2281 1.28089 23.3431 4.50563H15.3682C15.1382 3.69784 14.0582 3.18291 11.8632 3.18291C10.09 3.18291 8.85989 3.61738 8.85989 4.21598C8.85989 5.08493 11.2083 5.20722 15.3299 5.74468C19.9531 6.34329 24.5732 7.31521 24.5732 10.4595C24.5732 13.6038 19.2183 15.3996 12.7099 15.3996C5.54662 15.4028 0.115022 13.7486 0 10.3372Z" fill="#FF3B49"/>
<path d="M24.5508 0.270508H46.0056V3.7849H32.5991V5.78991H43.8074V9.03718H32.5991V11.3511H46.389V15.0522H24.5476V0.270508H24.5508Z" fill="#FF3B49"/>
<path d="M46.9482 0.270508H54.9998V11.3511H66.7863V15.0522H46.9482V0.270508Z" fill="#FF3B49"/>
<path d="M65.93 0.270508H87.3848V3.7849H73.9783V5.78991H85.1866V9.03718H73.9783V11.3511H87.7682V15.0522H65.9268V0.270508H65.93Z" fill="#FF3B49"/>
<path d="M86.5923 7.71107C86.5923 3.28589 92.2539 0 100.536 0C103.539 0 106.236 0.415162 108.239 1.15859C111.089 2.2142 112.747 3.86841 113.092 5.7479H105.041C104.849 4.58931 103.037 3.55623 100.417 3.55623C96.6024 3.55623 94.7557 5.29412 94.7557 7.71107C94.7557 10.128 96.9123 11.8659 100.494 11.8659C103.306 11.8659 105.002 10.8747 105.271 9.55194H113.399C113.169 11.1868 111.782 12.6319 109.817 13.6456C107.469 14.8654 104.539 15.4028 100.532 15.4028C92.1357 15.4028 86.5891 12.1362 86.5891 7.71107H86.5923Z" fill="#FF3B49"/>
<path d="M111.504 0.270508H135.231V3.94903H127.336V15.0522H119.284V3.94903H111.504V0.270508Z" fill="#FF3B49"/>
<path d="M134.451 0.270508H155.906V3.7849H142.5V5.78991H153.708V9.03718H142.5V11.3511H156.289V15.0522H134.448V0.270508H134.451Z" fill="#FF3B49"/>
<path d="M156.845 0.270508H169.558C177.492 0.270508 183.003 2.99963 183.003 7.69193C183.003 12.3842 177.763 15.0522 169.213 15.0522H156.848V0.270508H156.845ZM168.555 11.4734C172.252 11.4734 174.833 10.1926 174.833 7.68871C174.833 5.18486 172.408 3.84283 168.555 3.84283H164.897V11.4702H168.555V11.4734Z" fill="#FF3B49"/>
<path d="M20.3589 20.8677H33.072C41.0053 20.8677 46.5168 23.5968 46.5168 28.2891C46.5168 32.9814 41.2769 35.6494 32.7269 35.6494H20.3621V20.8677H20.3589ZM32.0688 32.0706C35.7654 32.0706 38.347 30.7897 38.347 28.2859C38.347 25.782 35.9188 24.44 32.0688 24.44H28.4104V32.0674H32.0688V32.0706Z" fill="#FF3B49"/>
<path d="M53.1369 20.8677H61.3418L71.55 35.6494H63L61.6517 33.477H52.3317L50.9834 35.6494H42.9702L53.1401 20.8677H53.1369ZM54.1369 30.5001H59.8369L58.1052 27.6068C57.6802 26.8827 57.0636 25.7048 57.0636 25.7048H56.9869C56.9869 25.7048 56.4086 26.8827 55.9485 27.6068L54.1369 30.5001Z" fill="#FF3B49"/>
<path d="M67.9619 28.3082C67.9619 23.8831 73.6236 20.5972 81.9051 20.5972C84.9085 20.5972 87.6051 21.0123 89.6084 21.7558C92.4584 22.8114 94.1134 24.4656 94.4617 26.3451H86.4102C86.2185 25.1865 84.4069 24.1534 81.7869 24.1534C77.972 24.1534 76.1253 25.8913 76.1253 28.3082C76.1253 30.7252 78.2819 32.4631 81.8636 32.4631C84.6752 32.4631 86.3718 31.4718 86.6402 30.1491H94.7684C94.5384 31.784 93.1517 33.229 91.1868 34.2428C88.8384 35.4625 85.9085 36 81.9051 36C73.5085 36 67.9619 32.7334 67.9619 28.3082Z" fill="#FF3B49"/>
<path d="M94.4969 20.8677H115.952V24.3821H102.545V26.3871H113.753V29.6343H102.545V31.9483H116.335V35.6494H94.4937V20.8677H94.4969Z" fill="#FF3B49"/>
<path d="M128.256 30.8925H124.943V35.6459H116.891V20.8643H129.834C133.339 20.8643 135.883 21.318 137.691 22.187C139.656 23.1171 140.771 24.4205 140.771 26.0522C140.771 27.9124 138.883 29.4024 135.994 30.2295L141.928 35.6459H133.029L128.253 30.8925H128.256ZM124.943 27.5841H129.566C131.531 27.5841 132.764 27.0048 132.764 25.991C132.764 24.9773 131.569 24.4398 129.489 24.4398H124.943V27.5809V27.5841Z" fill="#FF3B49"/>
<path d="M139.531 30.9344H147.775C148.043 32.1123 149.739 32.6723 152.398 32.6723C153.976 32.6723 155.903 32.3408 155.903 31.4525C155.903 30.5643 154.053 30.3358 150.663 29.882C146.04 29.2609 140.455 28.4144 140.455 25.2702C140.455 21.8781 145.615 20.5972 151.816 20.5972C157.516 20.5972 162.756 21.8781 162.871 25.1028H154.896C154.666 24.295 153.586 23.7801 151.391 23.7801C149.618 23.7801 148.388 24.2145 148.388 24.8132C148.388 25.6821 150.736 25.8044 154.858 26.3418C159.481 26.9405 164.101 27.9124 164.101 31.0567C164.101 34.201 158.746 35.9968 152.238 35.9968C145.075 35.9968 139.643 34.3426 139.528 30.9312L139.531 30.9344Z" fill="#FF3B49"/>
</g>
<defs>
<clipPath id="clip0_110_48">
<rect width="183" height="36" fill="white"/>
</clipPath>
</defs>
</svg>
