<svg width="218" height="59" viewBox="0 0 218 59" fill="none" xmlns="http://www.w3.org/2000/svg">
<g clip-path="url(#clip0_176_3)">
<path d="M19.6923 25.623H27.85V31.1303H36.4364V25.623H44.5941V40.6538H36.4364V34.7664H27.85V40.6538H19.6923V25.623Z" fill="#FF3B49"/>
<path d="M44.9463 33.1916C44.9463 28.6915 50.4119 25.3491 59.077 25.3491C67.7421 25.3491 73.2841 28.6915 73.2841 33.1916C73.2841 37.6917 67.7421 41.0119 59.077 41.0119C50.4119 41.0119 44.9463 37.6892 44.9463 33.1916ZM65.0106 33.1916C65.0106 30.733 63.0204 28.8594 59.1164 28.8594C55.2124 28.8594 53.2223 30.7305 53.2223 33.1916C53.2223 35.6527 55.2124 37.5016 59.1164 37.5016C63.0204 37.5016 65.0106 35.6527 65.0106 33.1916Z" fill="#FF3B49"/>
<path d="M73.4417 34.9145V25.623H81.5994V35.1688C81.5994 36.5561 83.0034 37.4176 86.0108 37.4176C88.7818 37.4176 90.1882 36.45 90.1882 35.0849V25.623H98.3459V34.9145C98.3459 38.6148 94.2474 40.9278 85.8951 40.9278C77.5427 40.9278 73.4442 38.679 73.4442 34.9145H73.4417Z" fill="#FF3B49"/>
<path d="M98.1489 35.8601H106.501C106.775 37.0573 108.491 37.625 111.186 37.625C112.787 37.625 114.738 37.2893 114.738 36.3859C114.738 35.4824 112.863 35.2503 109.43 34.7887C104.745 34.1593 99.0849 33.2953 99.0849 30.101C99.0849 26.6525 104.316 25.3491 110.6 25.3491C116.376 25.3491 121.686 26.6525 121.802 29.9332H113.723C113.489 29.1136 112.395 28.5878 110.171 28.5878C108.376 28.5878 107.127 29.0297 107.127 29.6394C107.127 30.5231 109.509 30.649 113.684 31.1946C118.368 31.8043 123.051 32.7917 123.051 35.9884C123.051 39.1852 117.624 41.0119 111.028 41.0119C103.767 41.0119 98.2647 39.3308 98.1464 35.8601H98.1489Z" fill="#FF3B49"/>
<path d="M123.363 25.623H145.105V29.1975H131.521V31.2365H142.881V34.5369H131.521V36.8918H145.494V40.6563H123.361V25.6255L123.363 25.623Z" fill="#FF3B49"/>
<path d="M149.125 33.1916C149.125 28.6915 154.59 25.3491 163.256 25.3491C171.921 25.3491 177.463 28.6915 177.463 33.1916C177.463 37.6917 171.921 41.0119 163.256 41.0119C154.59 41.0119 149.125 37.6892 149.125 33.1916ZM169.189 33.1916C169.189 30.733 167.199 28.8594 163.295 28.8594C159.391 28.8594 157.401 30.7305 157.401 33.1916C157.401 35.6527 159.391 37.5016 163.295 37.5016C167.199 37.5016 169.189 35.6527 169.189 33.1916Z" fill="#FF3B49"/>
<path d="M177.815 25.623H199.322V29.3234H185.973V31.782H197.019V35.1885H185.973V40.6538H177.815V25.623Z" fill="#FF3B49"/>
<path d="M21.1554 57.0451H21.0766C19.3204 58.4126 16.4707 59.0001 13.0741 59.0001C9.32771 59.0001 6.12571 58.3065 3.86213 57.0031C1.28575 55.5319 -0.00244141 53.5126 -0.00244141 51.1799C-0.00244141 46.744 5.22914 43.3374 13.8549 43.3374C21.1554 43.3374 25.7589 45.3764 26.658 48.7188H18.7736C18.3451 47.7511 16.6652 46.9538 14.1677 46.9538C10.2637 46.9538 8.27351 48.7188 8.27351 51.1799C8.27351 53.641 10.5371 55.4677 14.4805 55.4677C17.446 55.4677 18.8919 54.6062 19.3993 53.5966H15.6923V50.4838H27.2072V58.6422H21.7811L21.1554 57.0451Z" fill="#FF3B49"/>
<path d="M39.5792 53.8063H36.2221V58.6421H28.0643V43.6113H41.1802C44.732 43.6113 47.3084 44.0729 49.1434 44.9567C51.1336 45.9021 52.2666 47.2277 52.2666 48.889C52.2666 50.7824 50.3528 52.2956 47.4266 53.1349L53.439 58.6421H44.4217L39.5817 53.8063H39.5792ZM36.2221 50.4442H40.9068C42.897 50.4442 44.1458 49.8567 44.1458 48.8248C44.1458 47.793 42.9364 47.2475 40.828 47.2475H36.2221V50.4442Z" fill="#FF3B49"/>
<path d="M53.3183 43.6113H75.0599V47.1857H61.476V49.2247H72.8358V52.5251H61.476V54.8801H75.4491V58.6446H53.3159V43.6138L53.3183 43.6113Z" fill="#FF3B49"/>
<path d="M84.7399 43.6113H93.0528L103.398 58.6421H94.7326L93.3656 56.4353H83.9197L82.5526 58.6421H74.4343L84.7399 43.6113ZM85.7571 53.4064H91.533L89.7769 50.4639C89.3483 49.7283 88.7227 48.5286 88.7227 48.5286H88.6438C88.6438 48.5286 88.0576 49.7258 87.5896 50.4639L85.7546 53.4064H85.7571Z" fill="#FF3B49"/>
<path d="M96.7252 43.6113H120.77V47.3536H112.767V58.6421H104.61V47.3536H96.7252V43.6113Z" fill="#FF3B49"/>
<path d="M121.12 43.6113H129.277L138.41 52.0635H138.489V43.6113H146.374V58.6421H137.942L129.083 50.1282H129.004V58.6421H121.12V43.6113Z" fill="#FF3B49"/>
<path d="M147.817 43.6113H169.559V47.1857H155.975V49.2247H167.334V52.5251H155.975V54.8801H169.948V58.6446H147.814V43.6138L147.817 43.6113Z" fill="#FF3B49"/>
<path d="M169.325 53.8483H177.677C177.95 55.0456 179.667 55.6133 182.362 55.6133C183.963 55.6133 185.913 55.2776 185.913 54.3741C185.913 53.4707 184.039 53.2386 180.606 52.777C175.921 52.1475 170.261 51.2836 170.261 48.0893C170.261 44.6408 175.492 43.3374 181.775 43.3374C187.551 43.3374 192.862 44.6408 192.978 47.9214H184.899C184.665 47.1019 183.571 46.5761 181.347 46.5761C179.551 46.5761 178.303 47.018 178.303 47.6277C178.303 48.5114 180.684 48.6373 184.859 49.1828C189.544 49.7926 194.226 50.78 194.226 53.9767C194.226 57.1734 188.8 59.0001 182.204 59.0001C174.943 59.0001 169.44 57.3191 169.322 53.8483H169.325Z" fill="#FF3B49"/>
<path d="M193.096 53.8483H201.448C201.721 55.0456 203.438 55.6133 206.133 55.6133C207.734 55.6133 209.685 55.2776 209.685 54.3741C209.685 53.4707 207.81 53.2386 204.377 52.777C199.692 52.1475 194.032 51.2836 194.032 48.0893C194.032 44.6408 199.263 43.3374 205.547 43.3374C211.323 43.3374 216.633 44.6408 216.749 47.9214H208.67C208.436 47.1019 207.342 46.5761 205.118 46.5761C203.323 46.5761 202.074 47.018 202.074 47.6277C202.074 48.5114 204.456 48.6373 208.63 49.1828C213.315 49.7926 217.998 50.78 217.998 53.9767C217.998 57.1734 212.571 59.0001 205.975 59.0001C198.714 59.0001 193.212 57.3191 193.093 53.8483H193.096Z" fill="#FF3B49"/>
<path d="M112.519 1.42915C112.511 1.37978 112.509 1.37484 112.511 1.33781C112.482 0.629347 113.028 0.0319663 113.733 -0.000124405C114.437 -0.0322151 115.033 0.515796 115.068 1.22426C115.097 1.93272 114.551 2.5301 113.844 2.55973C113.799 2.55973 113.757 2.55973 113.713 2.55973C113.684 2.56713 113.666 2.5696 113.642 2.59182C113.565 2.7029 113.824 2.68809 113.634 3.17932C113.634 3.17932 113.634 3.23363 113.612 3.28794C113.592 3.47801 113.506 4.03837 113.489 4.33706C113.523 4.38149 113.533 4.40371 113.528 4.50985C113.509 4.65056 113.467 4.99862 113.408 5.22079C113.358 5.41086 113.28 5.44789 113.216 5.49232C113.117 5.88729 113.085 6.2156 112.844 6.69449C112.817 7.05983 112.787 7.15857 112.706 7.33384C112.684 7.87197 112.718 7.95343 112.334 8.7952C112.23 9.19263 112.312 9.4691 112.398 9.88628C112.489 10.3158 112.765 10.5009 112.797 10.9379C112.866 11.9672 112.824 12.6658 112.585 13.4656L112.767 13.9248C113.001 14.0408 113.585 14.3543 113.245 14.8208C113.698 15.0751 114.39 15.3516 114.952 15.8601C115.179 16.0576 115.418 16.2773 115.629 16.5291C116.046 16.6056 115.999 16.6377 116.304 16.8352C117.201 17.4177 118.629 18.5656 119.455 19.3728C119.6 19.4617 119.657 19.5234 119.772 19.59C119.79 19.627 119.794 19.6345 119.79 19.6443C119.748 19.7455 119.748 19.748 119.708 19.8295C119.753 19.8813 119.836 19.9307 119.888 19.9776C119.935 19.9924 119.935 19.9702 120.016 19.9529C120.12 20.0541 120.25 20.138 120.297 20.1356C120.442 20.1035 120.415 20.1331 120.543 19.9998C120.588 19.9554 120.659 20.0023 120.659 20.0023C120.706 19.9504 120.807 19.8467 120.94 19.7727C121.046 19.7134 121.245 19.7134 121.245 19.7134C121.312 19.7134 121.297 19.785 121.29 19.8072C121.213 19.8443 121.053 19.8813 120.962 19.9455C120.762 20.143 120.6 20.412 120.6 20.412C120.996 20.3676 121.233 20.4737 121.563 20.4441C121.74 20.4392 121.871 20.454 122.063 20.3232C122.063 20.3232 122.248 20.1997 122.41 20.1356C122.568 20.0714 122.718 20.1109 122.854 20.2146C122.95 20.3281 123.009 20.3306 122.854 20.4812C122.797 20.5404 122.718 20.607 122.617 20.7009C122.44 20.8687 122.201 21.0909 121.955 21.276C121.703 21.4612 121.42 21.6265 121.245 21.7006C120.799 22.0042 120.903 21.9252 120.553 22.2289C120.509 22.2659 120.391 22.335 120.334 22.3696C120.196 22.456 120.154 22.3794 120.07 22.2141C120.07 22.2141 120.031 22.1523 119.969 22.019C119.898 21.8759 119.849 21.7105 119.871 21.7129C119.787 21.7006 119.432 21.2587 119.432 21.1674C119.356 21.1477 119.033 20.8169 119.024 20.7552L118.735 20.5108C118.398 20.5725 118.326 20.3602 117.457 19.7085C117.356 19.7036 117.201 19.6443 116.982 19.4715C116.59 19.1407 115.649 18.3879 115.487 18.3015C115.314 18.2077 115.107 18.1188 114.982 18.0102C114.789 17.9707 114.686 17.9485 114.59 17.9188C114.494 17.8892 114.405 17.8522 114.156 17.8102C113.753 17.7485 113.339 17.5708 112.945 17.361C112.757 17.2671 112.595 17.2153 112.432 17.1413C112.073 16.9759 111.762 16.8302 111.523 16.7685C111.432 16.7562 110.996 16.613 110.767 16.4723C110.688 16.4279 110.642 16.3884 110.59 16.376C110.469 16.3439 110.39 16.3908 110.336 16.4081C110.038 16.5537 109.757 16.6796 109.496 16.8105C109.255 16.9339 109.033 17.0573 108.797 17.1857C108.585 17.3017 108.339 17.4103 108.085 17.5214C108.085 17.5214 107.368 17.8596 106.974 17.988C106.629 18.2546 105.93 18.7112 105.506 18.9383C105.297 19.0321 104.885 19.2765 104.698 19.3284C104.59 19.4123 104.203 19.6715 103.903 19.8862C103.671 20.0541 103.494 20.1923 103.494 20.1923C103.358 20.3084 103.366 20.3651 103.114 20.2516C103.043 20.3084 102.989 20.3429 102.942 20.375C102.755 20.5034 102.743 20.4713 102.674 20.4663C102.543 20.575 102.528 20.5157 102.415 20.6391C102.339 20.7502 102.415 20.7255 102.26 20.7774C102.225 20.7897 102.211 20.8292 102.183 20.849C102.058 20.9477 102.05 21.2365 101.752 21.2513C101.578 21.3698 101.617 21.5179 101.486 21.5081C101.491 21.6364 101.245 21.8142 101.201 21.8142C100.819 21.9351 100.799 21.6562 100.341 21.8512C100.282 21.8759 100.193 21.9499 100.08 21.9672C99.878 21.9993 99.6391 21.9524 99.4937 21.8339C99.2671 21.6512 99.0627 21.2982 99.0627 21.2982C98.9937 21.123 99.0381 21.0144 99.2745 20.8539C99.373 20.7947 99.3927 20.7502 99.5528 20.7428C99.6341 20.7157 99.612 20.7626 99.7548 20.7132C99.8386 20.686 99.8386 20.7058 100.006 20.6984C100.045 20.6737 100.097 20.6638 100.171 20.6416C100.304 20.6021 100.435 20.5577 100.435 20.5577C100.435 20.5577 100.469 20.5231 100.597 20.5404C100.706 20.4984 100.816 20.4367 100.873 20.417C100.863 20.2466 100.883 20.254 100.962 20.1874C101.063 20.1035 101.08 20.1183 101.149 20.1726C101.181 20.1553 101.196 20.1504 101.193 20.1232C101.183 20.0344 101.11 19.9899 101.137 19.7974C101.105 19.7184 101.058 19.6196 101.07 19.5629C101.087 19.4987 101.102 19.4691 101.142 19.4518C101.183 19.432 101.196 19.4592 101.215 19.4863C101.252 19.5332 101.282 19.6665 101.282 19.6665C101.292 19.8196 101.334 20.0171 101.486 19.9109C101.575 19.8221 101.6 19.5851 101.777 19.6419L101.903 19.7554C102.013 19.6567 102.018 19.6567 102.085 19.6172C102.085 19.6172 101.986 19.511 102.078 19.4345C102.139 19.3802 102.213 19.3432 102.348 19.2025C102.718 18.8149 102.905 18.6446 103.304 18.3335C104.095 17.7164 104.989 17.2918 105.555 17.0845C105.743 16.8549 105.925 16.7068 106.331 16.6772C106.836 15.8749 107.775 15.1689 107.991 15.0603C108.174 14.7517 108.245 14.7863 108.474 14.7295C108.654 14.5913 108.698 14.5913 108.78 14.4432C108.866 14.1346 108.629 13.3027 109.287 13.278C109.43 13.0855 109.395 13.1299 109.555 12.9472C109.457 12.6831 109.42 12.4659 109.398 12.2783C109.393 12.2561 109.142 12.0709 109.223 11.8364C109.117 11.7056 108.922 11.397 108.863 11.2563C108.834 11.2563 108.809 11.244 108.777 11.239C108.745 11.2341 108.703 11.2341 108.656 11.2267C108.548 11.4883 108.437 11.5056 108.255 11.5575C107.913 12.2412 107.789 12.5301 106.858 13.0805C106.484 13.4804 106.353 13.9322 106.356 13.9248C106.289 14.0581 106.309 14.2481 106.339 14.3494C106.287 14.4975 106.297 14.5147 106.297 14.5147C106.314 14.5715 106.366 14.648 106.43 14.6653C106.538 14.6974 106.651 14.6974 106.639 14.8184C106.622 14.9714 106.42 14.9418 106.326 14.9221C105.959 14.8529 106.082 14.616 105.846 14.69C105.661 14.8036 105.587 15.1492 105.294 15.0973C105.255 15.0702 105.27 14.9936 105.297 14.9393C105.339 14.8554 105.415 14.7863 105.371 14.7542C105.179 14.8085 104.794 14.9245 104.794 14.9245C104.614 14.969 104.42 14.8752 104.6 14.7616C104.683 14.732 104.802 14.695 104.949 14.6036C104.949 14.6036 105.026 14.5049 104.883 14.5518C104.725 14.6036 104.494 14.6332 104.329 14.611C104.329 14.611 103.986 14.5567 103.945 14.5296C103.9 14.5024 103.863 14.3963 103.969 14.3987C104.105 14.4037 104.447 14.3716 104.713 14.3074C104.841 14.2605 105.087 14.1223 105.225 14.0581C105.225 14.0581 105.378 13.8483 105.459 13.8063C105.6 13.6532 105.715 13.5644 105.839 13.4064C105.962 13.1669 106.095 12.7868 106.496 12.2042C106.683 11.9352 106.913 11.6216 107.201 11.3452C107.201 11.3452 107.284 10.891 107.659 10.575C107.745 10.3874 107.873 10.1677 107.999 9.96281C108.048 9.88381 108.095 9.81716 108.142 9.74311C108.26 9.56784 108.385 9.23953 108.829 9.20004C108.829 9.20004 109.021 9.06674 109.097 8.96799C109.213 8.87419 109.191 8.72361 109.284 8.61993C109.147 8.47923 108.797 8.21016 108.77 7.85223C108.743 7.47207 108.885 7.16104 109.122 6.93641C109.383 6.68709 109.654 6.5686 109.979 6.59575C110.385 6.66734 110.459 6.80311 110.585 6.94134C110.706 7.07217 110.755 6.99071 110.802 7.14129C111.142 7.24003 111.122 7.20054 111.112 7.45233C111.164 7.52391 111.25 7.59303 111.245 7.74114C111.366 7.50663 111.39 7.4622 111.703 7.20794C111.782 6.99565 111.836 6.78829 111.905 6.576C111.969 6.38099 112.051 6.17857 112.112 6.02799C112.063 5.596 112.188 5.52688 112.366 5.15167C112.336 5.09983 112.344 5.08502 112.358 4.99862C112.427 4.75177 112.541 4.42346 112.607 4.2087C112.607 4.2087 112.629 4.12477 112.718 4.11983C112.802 3.84829 112.927 3.34225 112.95 3.24104C113.036 2.95716 112.986 2.86335 112.93 2.70043C112.913 2.64859 112.925 2.57454 112.89 2.51529C112.799 2.34497 112.703 2.12774 112.637 1.96975C112.595 1.87101 112.531 1.49826 112.531 1.49826C112.523 1.48099 112.519 1.43902 112.519 1.43902" fill="#FF3B49"/>
</g>
<defs>
<clipPath id="clip0_176_3">
<rect width="218" height="59" fill="white"/>
</clipPath>
</defs>
</svg>
