<svg width="239" height="59" viewBox="0 0 239 59" fill="none" xmlns="http://www.w3.org/2000/svg">
<g clip-path="url(#clip0_25_7002)">
<path d="M3.14096 11.3322C5.838 10.0121 9.82202 8.62869 12.8399 7.52491C14.3693 6.96183 15.2534 6.35774 15.2534 5.55601C15.2534 4.62749 14.1268 4.01966 11.9521 4.01966C10.624 4.01966 9.69892 4.21357 9.05357 4.66851C8.32988 5.16446 8.00907 5.72754 8.00907 6.7008H0.443912C0.443912 4.94818 0.764722 4.1912 1.81295 3.19556C3.3424 1.72634 6.84147 0.622559 12.1162 0.622559C19.4389 0.622559 23.1841 2.67723 23.1841 5.38074C23.1841 6.7008 22.5015 7.75984 20.931 8.58021C18.1929 10.0084 14.6939 10.8735 11.7543 12.1265V12.1712H23.0237V15.7399H0C0 13.6218 0.805756 12.4733 3.14096 11.3285V11.3322Z" fill="black"/>
<path d="M23.2625 4.71338H31.1111V8.84509H23.2625V4.71338ZM23.2625 11.6157H31.1111V15.7474H23.2625V11.6157Z" fill="black"/>
<path d="M34.1663 11.3322C36.8633 10.0121 40.8473 8.62869 43.8652 7.52491C45.3946 6.96183 46.2787 6.35774 46.2787 5.55601C46.2787 4.62749 45.1522 4.01966 42.9774 4.01966C41.6494 4.01966 40.7242 4.21357 40.0789 4.66851C39.3552 5.16446 39.0344 5.72754 39.0344 6.7008H31.4692C31.4692 4.94818 31.79 4.1912 32.8383 3.19556C34.3677 1.72634 37.8668 0.622559 43.1415 0.622559C50.4642 0.622559 54.2095 2.67723 54.2095 5.38074C54.2095 6.7008 53.5268 7.75984 51.9563 8.58021C49.2183 10.0084 45.7192 10.8735 42.7797 12.1265V12.1712H54.0491V15.7399H31.0291C31.0291 13.6218 31.8348 12.4733 34.17 11.3285L34.1663 11.3322Z" fill="black"/>
<path d="M56.8208 0.279785H65.2327L67.3255 5.57867C68.0081 7.26417 68.7355 9.88192 68.7355 9.88192H68.8176C68.8176 9.88192 69.5823 7.56622 70.306 5.79495L72.5181 0.279785H80.1243L82.3364 5.75021C83.0601 7.54385 83.7838 9.88192 83.7838 9.88192H83.8659C83.8659 9.88192 84.6306 7.26417 85.3132 5.53393L87.406 0.279785H96.0193L88.4542 15.7439H79.9639L77.39 9.19206C76.8677 7.84962 76.3828 6.1865 76.3828 6.1865H76.3044C76.3044 6.1865 75.8232 7.85335 75.2972 9.19206L72.8016 15.7439H64.1882L56.8208 0.279785Z" fill="black"/>
<path d="M94.4077 8.06579C94.4077 3.43812 100.041 0 108.975 0C117.909 0 123.624 3.43812 123.624 8.06579C123.624 12.6935 117.909 16.1129 108.975 16.1129C100.041 16.1129 94.4077 12.6972 94.4077 8.06579ZM115.093 8.06579C115.093 5.53381 113.041 3.60966 109.016 3.60966C104.991 3.60966 102.939 5.53381 102.939 8.06579C102.939 10.5978 104.991 12.4996 109.016 12.4996C113.041 12.4996 115.093 10.5978 115.093 8.06579Z" fill="black"/>
<path d="M123.948 0.279785H134.893L139.321 8.93103H139.4L143.827 0.279785H154.854V15.7439H147.248V6.05598H147.17L142.38 15.7439H136.221L131.432 6.05598H131.349V15.7439H123.945V0.279785H123.948Z" fill="black"/>
<path d="M156.302 0.279785H178.717V3.95656H164.714V6.05225H176.423V9.44936H164.714V11.8732H179.12V15.7439H156.302V0.279785Z" fill="black"/>
<path d="M179.926 0.279785H188.338L197.753 8.97578H197.832V0.279785H205.96V15.7439H197.269L188.133 6.9845H188.051V15.7439H179.922V0.279785H179.926Z" fill="black"/>
<path d="M206.968 5.8397C208.818 5.56003 209.944 4.78067 209.944 3.91555H207.128V0.279785H213.649V3.39349C213.649 4.6688 213.044 5.51155 211.959 6.16039C210.791 6.85399 208.822 7.28655 206.968 7.34994V5.83597V5.8397Z" fill="black"/>
<path d="M213.324 10.8141H221.938C222.221 12.0484 223.989 12.6301 226.768 12.6301C228.417 12.6301 230.432 12.2833 230.432 11.3548C230.432 10.4262 228.499 10.1876 224.959 9.71028C220.128 9.06143 214.294 8.17393 214.294 4.8887C214.294 1.34243 219.688 0 226.164 0C232.121 0 237.594 1.34243 237.713 4.71344H229.383C229.141 3.87069 228.014 3.32998 225.72 3.32998C223.87 3.32998 222.583 3.78492 222.583 4.41139C222.583 5.32126 225.038 5.44805 229.342 6.01112C234.173 6.63759 239 7.65561 239 10.9408C239 14.2261 233.405 16.1092 226.604 16.1092C219.117 16.1092 213.444 14.379 213.324 10.8103V10.8141Z" fill="black"/>
<path d="M5.39404 29.6937C5.39404 25.0661 11.0269 21.6279 19.9611 21.6279C28.8953 21.6279 34.6102 25.0661 34.6102 29.6937C34.6102 34.3214 28.8953 37.7409 19.9611 37.7409C11.0269 37.7409 5.39404 34.3251 5.39404 29.6937ZM26.0789 29.6937C26.0789 27.1617 24.0272 25.2376 20.0021 25.2376C15.9771 25.2376 13.9254 27.1617 13.9254 29.6937C13.9254 32.2257 15.9771 34.1275 20.0021 34.1275C24.0272 34.1275 26.0789 32.2257 26.0789 29.6937Z" fill="black"/>
<path d="M34.931 21.9077H48.1701C51.8333 21.9077 54.4893 22.426 56.3806 23.3359C58.4323 24.3092 59.5999 25.715 59.5999 27.4229C59.5999 30.4061 55.4965 32.6584 49.6995 32.6584H43.343V37.3718H34.931V21.9077ZM43.343 29.1531H47.8903C49.942 29.1531 51.2289 28.4185 51.2289 27.3595C51.2289 26.3005 49.983 25.6516 47.8082 25.6516H43.343V29.1569V29.1531Z" fill="black"/>
<path d="M59.7192 21.9077H82.1349V25.5845H68.1312V27.6802H79.8408V31.0773H68.1312V33.5011H82.5378V37.3718H59.7192V21.9077Z" fill="black"/>
<path d="M83.3435 21.9077H91.7555L101.171 30.6037H101.253V21.9077H109.381V37.3718H100.69L91.554 28.6124H91.4757V37.3718H83.3472V21.9077H83.3435Z" fill="black"/>
<path d="M113.324 32.442H121.938C122.218 33.6763 123.99 34.258 126.769 34.258C128.417 34.258 130.432 33.9112 130.432 32.9827C130.432 32.0542 128.5 31.8155 124.959 31.3382C120.129 30.6894 114.294 29.8019 114.294 26.5166C114.294 22.9704 119.688 21.6279 126.164 21.6279C132.122 21.6279 137.594 22.9704 137.714 26.3414H129.384C129.141 25.4986 128.015 24.9579 125.72 24.9579C123.87 24.9579 122.583 25.4128 122.583 26.0393C122.583 26.9492 125.038 27.076 129.343 27.6391C134.173 28.2655 139 29.2835 139 32.5688C139 35.854 133.409 37.7371 126.605 37.7371C119.118 37.7371 113.444 36.0069 113.324 32.4383V32.442Z" fill="black"/>
<path d="M138.154 21.9077H162.942V25.756H154.69V37.3718H146.278V25.756H138.15V21.9077H138.154Z" fill="black"/>
<path d="M171.313 31.9463L161.453 21.9116H170.589L173.648 25.3497C174.692 26.5169 175.58 27.837 175.58 27.837H175.659C175.659 27.837 176.584 26.5169 177.632 25.3497L180.691 21.9116H189.625L179.725 31.9463V37.3757H171.313V31.9463Z" fill="black"/>
<path d="M189.26 21.9077H197.671V33.5011H209.985V37.3718H189.26V21.9077Z" fill="black"/>
<path d="M210.187 21.9077H232.602V25.5845H218.598V27.6802H230.308V31.0773H218.598V33.5011H233.005V37.3718H210.187V21.9077Z" fill="black"/>
<path d="M47.3643 43.5361H62.2558C65.0722 43.5361 67.165 43.9053 68.6944 44.5318C70.4253 45.244 71.4288 46.3068 71.4288 47.5821C71.4288 49.0513 70.2612 49.9835 67.8476 50.5466V50.61C70.9849 51.1507 72.7978 52.5789 72.7978 54.3315C72.7978 56.0842 71.5519 57.2513 69.4964 58.0307C67.7656 58.6795 65.5124 59.004 62.5356 59.004H47.3643V43.5399V43.5361ZM60.8458 49.551C62.4535 49.551 63.5428 49.1408 63.5428 48.3167C63.5428 47.4926 62.4162 47.0414 60.8047 47.0414H55.6121V49.551H60.8458ZM61.6105 55.454C63.4234 55.454 64.6694 54.8685 64.6694 53.94C64.6694 52.9444 63.3003 52.4484 61.5694 52.4484H55.6121V55.454H61.6067H61.6105Z" fill="black"/>
<path d="M81.65 43.5361H90.2223L100.887 59.0002H91.9532L90.5432 56.7293H80.8032L79.3931 59.0002H71.0222L81.6463 43.5361H81.65ZM82.6982 53.6156H88.6556L86.8426 50.5876C86.3987 49.8307 85.7571 48.5964 85.7571 48.5964H85.6788C85.6788 48.5964 85.0745 49.8307 84.5932 50.5876L82.702 53.6156H82.6982Z" fill="black"/>
<path d="M99.317 43.5361H124.105V47.3844H115.854V59.0002H107.442V47.3844H99.3132V43.5361H99.317Z" fill="black"/>
<path d="M123.303 43.5361H148.095V47.3844H139.843V59.0002H131.432V47.3844H123.303V43.5361Z" fill="black"/>
<path d="M148.416 43.5361H156.828V55.1295H169.142V59.0002H148.416V43.5361Z" fill="black"/>
<path d="M169.339 43.5361H191.755V47.2129H177.751V49.3086H189.461V52.7057H177.751V55.1295H192.158V59.0002H169.339V43.5361Z" fill="black"/>
</g>
<defs>
<clipPath id="clip0_25_7002">
<rect width="239" height="59" fill="white"/>
</clipPath>
</defs>
</svg>
